<svg width="252" height="155" viewBox="0 0 252 155" fill="none" xmlns="http://www.w3.org/2000/svg">
<path d="M57.3622 41.0627C60.387 41.0627 62.8391 38.9081 62.8391 36.2503C62.8391 33.5925 60.387 31.4379 57.3622 31.4379C54.3374 31.4379 51.8853 33.5925 51.8853 36.2503C51.8853 38.9081 54.3374 41.0627 57.3622 41.0627Z" fill="#DEE5DC"/>
<path d="M57.1551 33.0046C59.3544 33.0046 61.1374 31.438 61.1374 29.5054C61.1374 27.5728 59.3544 26.0062 57.1551 26.0062C54.9557 26.0062 53.1727 27.5728 53.1727 29.5054C53.1727 31.438 54.9557 33.0046 57.1551 33.0046Z" fill="#DEE5DC"/>
<path d="M57.2124 47.607C56.9644 47.607 56.763 47.4631 56.7624 47.2453L56.705 28.0812C56.7045 27.8627 56.9054 27.6785 57.1539 27.6785C57.1543 27.6785 57.1547 27.6785 57.155 27.6785C57.4031 27.6785 57.6045 27.8774 57.605 28.0952L57.6624 47.2319C57.663 47.4503 57.4621 47.607 57.2135 47.607C57.2133 47.607 57.2128 47.607 57.2124 47.607Z" fill="#161616"/>
<path d="M57.2128 37.6899C57.0523 37.6899 56.8969 37.6141 56.8158 37.481C56.6986 37.2885 56.781 37.0488 57.0001 36.9457L59.9593 35.5537C60.1782 35.4506 60.451 35.5232 60.5684 35.7157C60.6856 35.9082 60.6031 36.1478 60.3841 36.2509L57.4249 37.6429C57.3572 37.6747 57.2847 37.6899 57.2128 37.6899Z" fill="#161616"/>
<path d="M57.1552 31.8334C57.0265 31.8334 56.8987 31.7852 56.8098 31.6917L54.4819 29.2451C54.3224 29.0774 54.3478 28.8282 54.5384 28.6882C54.7292 28.5477 55.0127 28.5703 55.1722 28.7378L57.5001 31.1845C57.6596 31.3521 57.6342 31.6014 57.4436 31.7414C57.3595 31.8032 57.2571 31.8334 57.1552 31.8334Z" fill="#161616"/>
<path d="M27.18 72.7551V44.2857C27.18 44.2857 165.446 36.7114 204.712 71.2139L27.18 72.7551Z" fill="#DEE5DC"/>
<path d="M27.18 72.7788C27.18 72.7788 122.58 57.7008 230.04 69.0036V131.204L27.18 129.423V72.7788Z" fill="#EAEFE8"/>
<path d="M19.5759 73.9788C19.3615 73.9788 19.1714 73.8437 19.1333 73.6518C19.0902 73.4367 19.2539 73.2318 19.4987 73.194C19.7757 73.1511 47.6743 68.8908 88.7389 66.3292C112.856 64.8246 136.732 64.191 159.701 64.4471C188.416 64.7667 215.789 66.484 241.06 69.5518C241.306 69.5817 241.478 69.7813 241.444 69.9975C241.41 70.2138 241.183 70.3641 240.937 70.3352C215.703 67.2719 188.367 65.5569 159.689 65.2377C136.745 64.9826 112.895 65.6151 88.8026 67.1181C47.7837 69.677 19.9307 73.9302 19.6542 73.9729C19.6279 73.977 19.6016 73.9788 19.5759 73.9788Z" fill="#161616"/>
<path d="M172.902 41.7378L154.481 37.6744C154.481 37.6744 153.158 35.4141 155.299 34.6396L172.014 37.7821C172.014 37.7821 174.133 39.6666 172.902 41.7378Z" fill="white"/>
<path d="M172.902 42.1332C172.866 42.1332 172.829 42.1294 172.792 42.1213L154.371 38.0581C154.246 38.0304 154.14 37.9566 154.081 37.8555C154.05 37.8021 153.321 36.5355 153.778 35.4438C154.001 34.911 154.455 34.5175 155.127 34.2741C155.211 34.2437 155.304 34.2363 155.393 34.253L172.108 37.3956C172.194 37.4117 172.272 37.4495 172.334 37.5044C172.358 37.5257 172.925 38.0349 173.329 38.8203C173.88 39.8903 173.87 40.9625 173.301 41.9209C173.222 42.0536 173.066 42.1332 172.902 42.1332ZM154.803 37.3377L172.647 41.2739C173.283 39.8118 172.112 38.4801 171.778 38.1421L155.348 35.0532C154.982 35.2087 154.744 35.4266 154.623 35.7167C154.38 36.2962 154.657 37.0239 154.803 37.3377Z" fill="#161616"/>
<path d="M147.42 43.0556V68.5182L202.86 80.2104V53.132L147.42 43.0556Z" fill="#EAEFE8"/>
<path d="M202.95 80.6058C202.915 80.6058 202.88 80.6023 202.845 80.5949L147.405 68.9027C147.203 68.86 147.06 68.7012 147.06 68.5182V43.0556C147.06 42.9367 147.121 42.8241 147.226 42.7491C147.331 42.674 147.468 42.6439 147.601 42.6684L203.041 52.7448C203.25 52.7828 203.4 52.9446 203.4 53.132V80.2104C203.4 80.3315 203.337 80.4459 203.229 80.5209C203.149 80.5764 203.05 80.6058 202.95 80.6058ZM147.96 68.2064L202.5 79.7088V53.4541L147.96 43.5412V68.2064Z" fill="#161616"/>
<path d="M202.86 53.132L222.213 45.7192L222.273 71.4185L202.86 80.2104V53.132Z" fill="#EAEFE8"/>
<path d="M202.95 80.6058C202.869 80.6058 202.788 80.5865 202.716 80.548C202.582 80.4764 202.5 80.3483 202.5 80.2104V53.132C202.5 52.9748 202.606 52.8326 202.77 52.7697L222.078 45.357C222.217 45.3039 222.377 45.3151 222.504 45.3882C222.631 45.4609 222.708 45.5849 222.708 45.7183L222.79 71.4174C222.791 71.5658 222.697 71.702 222.547 71.77L203.156 80.5618C203.091 80.591 203.021 80.6058 202.95 80.6058ZM203.4 53.3906V79.5612L221.89 71.178L221.81 46.3228L203.4 53.3906Z" fill="#161616"/>
<path d="M147.58 43.0555L171.842 36.602L222.265 45.7192L202.964 53.132L147.58 43.0555Z" fill="#EAEFE8"/>
<path d="M202.964 53.5274C202.933 53.5274 202.903 53.5246 202.872 53.5192L147.488 43.4427C147.287 43.4061 147.139 43.2541 147.13 43.0733C147.121 42.8925 147.252 42.7294 147.449 42.6771L171.712 36.2235C171.784 36.2046 171.86 36.2012 171.933 36.2147L222.356 45.3319C222.548 45.3666 222.692 45.5066 222.713 45.6779C222.733 45.8492 222.625 46.0124 222.445 46.0815L203.144 53.4942C203.087 53.5162 203.025 53.5274 202.964 53.5274ZM149.403 42.9836L202.915 52.7193L220.787 45.8557L171.863 37.0095L149.403 42.9836Z" fill="#161616"/>
<path d="M202.95 62.7116C202.915 62.7116 202.88 62.7082 202.845 62.7009L147.475 51.0759C147.233 51.0251 147.084 50.8117 147.142 50.5993C147.199 50.3869 147.442 50.256 147.684 50.3066L202.901 61.8993L221.479 54.2072C221.704 54.114 221.972 54.1988 222.078 54.3964C222.184 54.5939 222.088 54.8294 221.863 54.9226L203.142 62.6738C203.081 62.699 203.016 62.7116 202.95 62.7116Z" fill="#161616"/>
<path d="M202.95 72.2064C202.917 72.2064 202.883 72.203 202.85 72.1965L147.41 61.1294C147.168 61.081 147.016 60.8692 147.071 60.6563C147.126 60.4433 147.367 60.3088 147.61 60.3583L202.894 71.3943L222.067 63.1028C222.289 63.006 222.559 63.0871 222.669 63.2831C222.779 63.4789 222.687 63.716 222.464 63.8125L203.149 72.1657C203.086 72.1926 203.018 72.2064 202.95 72.2064Z" fill="#161616"/>
<path d="M197.46 57.623C196.616 57.623 195.93 57.02 195.93 56.2786C195.93 55.5373 196.616 54.9342 197.46 54.9342C198.304 54.9342 198.99 55.5373 198.99 56.2786C198.99 57.02 198.304 57.623 197.46 57.623ZM197.46 55.7251C197.113 55.7251 196.83 55.9734 196.83 56.2786C196.83 56.5839 197.113 56.8322 197.46 56.8322C197.807 56.8322 198.09 56.5839 198.09 56.2786C198.09 55.9734 197.807 55.7251 197.46 55.7251Z" fill="#161616"/>
<path d="M196.38 68.0618C195.536 68.0618 194.85 67.4587 194.85 66.7174C194.85 65.9761 195.536 65.373 196.38 65.373C197.224 65.373 197.91 65.9761 197.91 66.7174C197.91 67.4587 197.224 68.0618 196.38 68.0618ZM196.38 66.1639C196.033 66.1639 195.75 66.4122 195.75 66.7174C195.75 67.0227 196.033 67.271 196.38 67.271C196.727 67.271 197.01 67.0227 197.01 66.7174C197.01 66.4122 196.727 66.1639 196.38 66.1639Z" fill="#161616"/>
<path d="M152.1 58.572C151.256 58.572 150.57 57.9689 150.57 57.2276C150.57 56.4863 151.256 55.8832 152.1 55.8832C152.944 55.8832 153.63 56.4863 153.63 57.2276C153.63 57.9689 152.944 58.572 152.1 58.572ZM152.1 56.6741C151.753 56.6741 151.47 56.9224 151.47 57.2276C151.47 57.5329 151.753 57.7812 152.1 57.7812C152.447 57.7812 152.73 57.5329 152.73 57.2276C152.73 56.9224 152.447 56.6741 152.1 56.6741Z" fill="#161616"/>
<path d="M152.1 66.7965C151.256 66.7965 150.57 66.1934 150.57 65.4521C150.57 64.7108 151.256 64.1077 152.1 64.1077C152.944 64.1077 153.63 64.7108 153.63 65.4521C153.63 66.1934 152.944 66.7965 152.1 66.7965ZM152.1 64.8986C151.753 64.8986 151.47 65.1469 151.47 65.4521C151.47 65.7574 151.753 66.0057 152.1 66.0057C152.447 66.0057 152.73 65.7574 152.73 65.4521C152.73 65.1469 152.447 64.8986 152.1 64.8986Z" fill="#161616"/>
<path d="M153.697 49.4219L135.277 45.3586C135.277 45.3586 133.954 43.0983 136.094 42.3237L152.809 45.4664C152.809 45.4662 154.929 47.3507 153.697 49.4219Z" fill="white"/>
<path d="M153.697 49.8173C153.661 49.8173 153.624 49.8135 153.588 49.8054L135.167 45.7422C135.041 45.7145 134.936 45.6406 134.876 45.5396C134.845 45.4861 134.117 44.2195 134.574 43.1279C134.797 42.5949 135.251 42.2014 135.923 41.9581C136.007 41.9278 136.099 41.9203 136.188 41.9371L152.904 45.0798C152.989 45.0959 153.068 45.1337 153.129 45.1886C153.153 45.21 153.721 45.7191 154.125 46.5045C154.676 47.5745 154.666 48.6467 154.096 49.6052C154.017 49.7377 153.862 49.8173 153.697 49.8173ZM135.598 45.0218L153.443 48.958C154.079 47.4959 152.907 46.1642 152.574 45.8262L136.143 42.7371C135.778 42.8927 135.54 43.1107 135.418 43.4007C135.176 43.9802 135.453 44.708 135.598 45.0218Z" fill="#161616"/>
<path d="M159.12 44.7089C159.12 44.7089 162.78 31.21 166.71 30.7095C170.64 30.2091 175.209 35.1122 175.209 35.1122L182.144 21.001C182.144 21.001 185.709 16.6074 192.304 18.1889C198.9 19.7703 204.712 33.3757 204.712 33.3757C204.712 33.3757 212.124 33.9897 213.342 37.5561C214.56 41.1225 215.993 47.6501 215.993 47.6501L202.963 52.6575L159.12 44.7089Z" fill="#8DC73F"/>
<path d="M187.556 36.9976C187.359 36.9976 187.178 36.8823 187.123 36.7069L186.136 33.5563C186.114 33.4863 186.115 33.4119 186.138 33.342C186.146 33.3169 186.154 33.2917 186.162 33.2663C186.16 33.2697 186.158 33.2732 186.156 33.2767C186.038 33.4689 185.765 33.5405 185.547 33.4369C185.104 33.2272 182.88 32.1329 182.587 31.1937C182.516 30.9662 182.546 30.7469 182.674 30.5591C182.82 30.3461 183.053 30.2135 183.333 30.186C183.896 30.1308 184.62 30.5384 185.201 30.9555C185.185 30.3271 185.272 29.5902 185.689 29.1845C185.924 28.9547 186.24 28.8435 186.6 28.8655C186.896 28.8828 187.144 29.0077 187.319 29.2271C188.026 30.1117 187.275 32.7045 187.037 33.4529L187.991 36.4971C188.056 36.7076 187.916 36.9252 187.676 36.9831C187.636 36.9931 187.596 36.9976 187.556 36.9976ZM183.45 30.9696C183.458 31.1763 184.31 31.9521 185.974 32.741C186.135 32.8172 186.221 32.9673 186.209 33.1177C186.639 31.7221 186.896 30.0745 186.582 29.6813C186.562 29.656 186.557 29.6557 186.54 29.6546C186.442 29.6499 186.399 29.6733 186.357 29.7141C186.028 30.0345 186.071 31.1973 186.203 31.8823C186.237 32.0535 186.139 32.2236 185.963 32.3018C185.786 32.3798 185.572 32.348 185.435 32.2227C184.703 31.5529 183.78 30.9686 183.468 30.9686C183.462 30.9688 183.456 30.9689 183.45 30.9696Z" fill="#161616"/>
<path d="M169.916 42.2171C169.719 42.2171 169.538 42.1018 169.483 41.9264L168.496 38.7757C168.474 38.7057 168.475 38.6313 168.498 38.5614C168.506 38.5363 168.514 38.5111 168.522 38.4857C168.52 38.4892 168.518 38.4926 168.516 38.4961C168.398 38.6881 168.124 38.7599 167.907 38.6563C167.464 38.4466 165.24 37.3523 164.947 36.4131C164.876 36.1857 164.906 35.9663 165.034 35.7786C165.18 35.5655 165.413 35.433 165.693 35.4054C166.257 35.3499 166.981 35.7577 167.561 36.1749C167.545 35.5465 167.632 34.8096 168.049 34.404C168.284 34.174 168.6 34.0634 168.96 34.0849C169.256 34.1022 169.504 34.2271 169.679 34.4465C170.385 35.3311 169.635 37.9239 169.397 38.6723L170.351 41.7165C170.416 41.927 170.276 42.1446 170.036 42.2025C169.996 42.2125 169.956 42.2171 169.916 42.2171ZM165.81 36.189C165.818 36.3957 166.67 37.1715 168.334 37.9604C168.495 38.0366 168.581 38.1867 168.569 38.3372C168.999 36.9415 169.256 35.2939 168.942 34.9007C168.922 34.8754 168.917 34.8751 168.9 34.874C168.802 34.8691 168.759 34.8927 168.717 34.9335C168.387 35.2539 168.431 36.4167 168.563 37.1017C168.597 37.2729 168.499 37.4431 168.323 37.5212C168.146 37.5993 167.932 37.5674 167.795 37.4421C167.047 36.7579 166.097 36.1591 165.81 36.189Z" fill="#161616"/>
<path d="M185.135 42.2846C185.04 42.2846 184.945 42.2588 184.864 42.2052L181.893 40.2408C181.826 40.197 181.775 40.138 181.745 40.0701C181.734 40.046 181.723 40.0216 181.711 39.9972C181.712 40.001 181.713 40.0048 181.714 40.0086C181.754 40.2242 181.588 40.4274 181.343 40.4629C180.846 40.5347 178.325 40.8618 177.44 40.2758C177.225 40.1339 177.097 39.9439 177.068 39.7265C177.035 39.4799 177.128 39.2494 177.33 39.0777C177.736 38.7318 178.594 38.6647 179.344 38.6837C178.894 38.1948 178.451 37.5648 178.498 37.02C178.525 36.7116 178.698 36.455 178.998 36.2782C179.244 36.1333 179.528 36.0987 179.819 36.1782C180.993 36.4993 182.202 38.9549 182.534 39.6749L185.405 41.5729C185.604 41.7041 185.644 41.952 185.494 42.1266C185.406 42.2302 185.271 42.2846 185.135 42.2846ZM181.27 39.6773C181.423 39.6773 181.563 39.7459 181.645 39.8544C181.015 38.5187 180.073 37.0761 179.551 36.9335C179.518 36.9238 179.513 36.927 179.5 36.935C179.42 36.9822 179.401 37.0257 179.396 37.0807C179.358 37.5126 180.201 38.4091 180.782 38.879C180.928 38.9965 180.968 39.1838 180.883 39.3405C180.798 39.4971 180.607 39.587 180.411 39.5612C179.343 39.4214 178.18 39.4588 177.967 39.6352C178.173 39.8686 179.731 39.894 181.197 39.6827C181.222 39.679 181.246 39.6773 181.27 39.6773Z" fill="#161616"/>
<path d="M193.569 27.3916C193.329 27.3916 193.13 27.2247 193.12 27.012L192.972 23.7469C192.969 23.6741 192.989 23.6019 193.029 23.5384C193.043 23.5157 193.058 23.493 193.072 23.4701C193.069 23.473 193.067 23.4756 193.064 23.4783C192.899 23.6419 192.615 23.6577 192.429 23.5131C192.052 23.2205 190.168 21.7117 190.125 20.7385C190.115 20.503 190.201 20.2951 190.374 20.1379C190.57 19.9597 190.831 19.8774 191.111 19.9057C191.673 19.9635 192.275 20.5053 192.733 21.0276C192.879 20.4125 193.154 19.712 193.665 19.3998C193.953 19.2231 194.289 19.1785 194.635 19.2709C194.918 19.3466 195.128 19.5179 195.242 19.7662C195.701 20.7687 194.301 23.1445 193.877 23.826L194.02 26.9805C194.03 27.1988 193.836 27.3828 193.588 27.3915C193.582 27.3915 193.576 27.3916 193.569 27.3916ZM191.023 20.6918C190.947 20.9794 191.91 22.0558 193.024 22.9202C193.161 23.0265 193.207 23.1894 193.156 23.3333C193.935 22.0596 194.611 20.5068 194.407 20.0614C194.394 20.0327 194.388 20.0315 194.372 20.0271C194.28 20.0025 194.23 20.0169 194.179 20.0486C193.774 20.2961 193.516 21.4366 193.47 22.1294C193.458 22.3027 193.319 22.449 193.127 22.4901C192.935 22.5309 192.735 22.4572 192.634 22.3082C192.082 21.4931 191.314 20.7253 191.023 20.6918Z" fill="#161616"/>
<path d="M198.525 40.1734C198.522 40.1734 198.519 40.1734 198.516 40.1734C198.268 40.1734 198.07 39.9536 198.074 39.7353L198.14 36.4503C198.142 36.3774 198.166 36.2975 198.21 36.2361C198.226 36.2141 198.242 36.1874 198.258 36.1651C198.255 36.1681 198.252 36.1686 198.249 36.1714C198.074 36.3264 197.789 36.3263 197.613 36.1728C197.255 35.8617 195.474 34.26 195.494 33.2864C195.499 33.0505 195.598 32.8473 195.782 32.6989C195.989 32.531 196.256 32.4619 196.533 32.5041C197.09 32.5901 197.656 33.1611 198.079 33.7058C198.265 33.0991 198.585 32.4135 199.115 32.1275C199.415 31.9655 199.753 31.938 200.092 32.0476C200.37 32.1375 200.568 32.3192 200.666 32.5727C201.059 33.5968 199.506 35.898 199.038 36.5569L198.974 39.7492C198.97 39.9653 198.769 40.1734 198.525 40.1734ZM196.394 33.2845C196.299 33.5676 197.19 34.6909 198.246 35.6098C198.376 35.723 198.411 35.8885 198.351 36.0297C199.211 34.7973 199.988 33.2805 199.813 32.8256C199.802 32.7962 199.796 32.7946 199.781 32.7894C199.69 32.76 199.639 32.7725 199.586 32.8011C199.166 33.0279 198.834 34.1536 198.743 34.8427C198.719 35.0152 198.571 35.1544 198.377 35.1857C198.182 35.2169 197.987 35.1331 197.896 34.979C197.398 34.1374 196.682 33.3322 196.394 33.2845Z" fill="#161616"/>
<path d="M189.09 37.7219C188.841 37.7219 188.64 37.5449 188.64 37.3265V35.7449C188.64 35.5264 188.841 35.3495 189.09 35.3495C189.339 35.3495 189.54 35.5264 189.54 35.7449V37.3265C189.54 37.5449 189.339 37.7219 189.09 37.7219Z" fill="#161616"/>
<path d="M200.284 41.3598C200.235 41.3598 200.186 41.3529 200.138 41.3381C199.903 41.2671 199.778 41.0422 199.858 40.8357L200.544 39.0823C200.625 38.8755 200.881 38.7658 201.116 38.8368C201.351 38.9078 201.477 39.1327 201.396 39.3393L200.71 41.0927C200.645 41.2569 200.471 41.3598 200.284 41.3598Z" fill="#161616"/>
<path d="M196.38 48.0817C196.208 48.0817 196.043 47.9938 195.968 47.8461L194.978 45.8792C194.878 45.6794 194.981 45.4461 195.208 45.3577C195.434 45.2693 195.701 45.3596 195.801 45.5594L196.791 47.5263C196.892 47.726 196.789 47.9593 196.562 48.0477C196.503 48.0708 196.441 48.0817 196.38 48.0817Z" fill="#161616"/>
<path d="M197.91 47.6863C197.722 47.6863 197.546 47.5814 197.483 47.4158L196.943 45.9924C196.864 45.785 196.992 45.561 197.228 45.4921C197.464 45.4233 197.718 45.5351 197.797 45.7422L198.337 47.1656C198.416 47.373 198.288 47.5969 198.052 47.6659C198.005 47.6796 197.957 47.6863 197.91 47.6863Z" fill="#161616"/>
<path d="M168.3 42.719C168.125 42.719 167.959 42.6292 167.886 42.479L167.224 41.1197C167.126 40.9188 167.232 40.6866 167.461 40.6006C167.689 40.5152 167.954 40.6079 168.052 40.8086L168.714 42.1678C168.811 42.3687 168.705 42.6009 168.477 42.6869C168.419 42.7086 168.359 42.719 168.3 42.719Z" fill="#161616"/>
<path d="M183.96 43.451C183.879 43.451 183.797 43.432 183.724 43.392L182.374 42.6599C182.162 42.5452 182.096 42.3017 182.227 42.1158C182.357 41.93 182.635 41.8722 182.846 41.9872L184.196 42.7194C184.408 42.834 184.473 43.0776 184.343 43.2634C184.258 43.3844 184.111 43.451 183.96 43.451Z" fill="#161616"/>
<path d="M207.45 39.9362C207.201 39.9362 207 39.7592 207 39.5408V37.801C207 37.5825 207.201 37.4055 207.45 37.4055C207.699 37.4055 207.9 37.5825 207.9 37.801V39.5408C207.9 39.7592 207.699 39.9362 207.45 39.9362Z" fill="#161616"/>
<path d="M208.801 39.9362C208.774 39.9362 208.747 39.9341 208.72 39.9299C208.475 39.8908 208.313 39.6849 208.357 39.4701L208.717 37.7303C208.762 37.5155 208.996 37.3732 209.24 37.4119C209.485 37.451 209.647 37.6569 209.603 37.8717L209.243 39.6115C209.203 39.8024 209.014 39.9362 208.801 39.9362Z" fill="#161616"/>
<path d="M194.851 27.4413C194.837 27.4413 194.823 27.4408 194.809 27.4395C194.562 27.4198 194.379 27.2274 194.402 27.01L194.582 25.2702C194.604 25.0527 194.825 24.8912 195.071 24.9122C195.318 24.932 195.501 25.1243 195.478 25.3418L195.298 27.0816C195.277 27.2869 195.081 27.4413 194.851 27.4413Z" fill="#161616"/>
<path d="M32.3164 90.8262L85.6081 78.1454C85.6081 78.1454 94.7905 79.5882 92.672 93.653L39.3418 110.369" fill="#161616"/>
<path d="M39.3417 110.765C39.1569 110.765 38.9835 110.664 38.918 110.502C38.8345 110.296 38.9565 110.07 39.1907 109.997L92.261 93.362C92.8178 89.4534 92.776 84.2034 89.5904 80.8796C87.9093 79.1257 86.0472 78.6435 85.6196 78.5524L32.4339 91.2078C32.1939 91.2654 31.947 91.1403 31.882 90.9294C31.817 90.7186 31.9589 90.5016 32.1988 90.4445L85.4905 77.7638C85.5544 77.7484 85.6217 77.7457 85.6872 77.7562C85.7875 77.772 88.1673 78.1674 90.2787 80.3701C93.7413 83.9829 93.734 89.6156 93.1182 93.7049C93.096 93.8518 92.9821 93.9756 92.8232 94.0253L39.4929 110.742C39.4431 110.757 39.392 110.765 39.3417 110.765Z" fill="#161616"/>
<path d="M33.9143 111.531C40.4213 111.531 45.6962 106.896 45.6962 101.179C45.6962 95.4611 40.4213 90.8261 33.9143 90.8261C27.4074 90.8261 22.1324 95.4611 22.1324 101.179C22.1324 106.896 27.4074 111.531 33.9143 111.531Z" fill="#DEE5DC"/>
<path d="M33.9143 111.927C27.1696 111.927 21.6824 107.105 21.6824 101.179C21.6824 95.2522 27.1696 90.4308 33.9143 90.4308C40.6591 90.4308 46.1462 95.2522 46.1462 101.179C46.1462 107.105 40.6591 111.927 33.9143 111.927ZM33.9143 91.2216C27.666 91.2216 22.5824 95.6883 22.5824 101.179C22.5824 106.669 27.666 111.136 33.9143 111.136C40.1627 111.136 45.2462 106.669 45.2462 101.179C45.2462 95.6883 40.1627 91.2216 33.9143 91.2216Z" fill="#161616"/>
<path d="M33.9143 104.125C35.7661 104.125 37.2673 102.806 37.2673 101.179C37.2673 99.5516 35.7661 98.2325 33.9143 98.2325C32.0625 98.2325 30.5612 99.5516 30.5612 101.179C30.5612 102.806 32.0625 104.125 33.9143 104.125Z" fill="#EAEFE8"/>
<path d="M33.9144 104.52C31.8174 104.52 30.1113 103.021 30.1113 101.179C30.1113 99.3361 31.8174 97.837 33.9144 97.837C36.0114 97.837 37.7174 99.3361 37.7174 101.179C37.7174 103.021 36.0114 104.52 33.9144 104.52ZM33.9144 98.6279C32.3136 98.6279 31.0113 99.7722 31.0113 101.179C31.0113 102.585 32.3136 103.73 33.9144 103.73C35.5151 103.73 36.8174 102.585 36.8174 101.179C36.8174 99.7722 35.5151 98.6279 33.9144 98.6279Z" fill="#161616"/>
<path d="M55.2291 97.3072L108.521 84.6265C108.521 84.6265 117.703 86.0692 115.585 100.134L62.2547 116.85" fill="#161616"/>
<path d="M62.2547 117.246C62.0698 117.246 61.8965 117.145 61.831 116.983C61.7475 116.777 61.8695 116.551 62.1037 116.478L115.174 99.8432C115.731 95.9347 115.689 90.6846 112.503 87.3608C110.822 85.6069 108.96 85.1247 108.533 85.0336L55.3468 97.689C55.1071 97.7463 54.8598 97.6215 54.795 97.4107C54.7302 97.1998 54.8718 96.9828 55.1118 96.9257L108.403 84.245C108.468 84.2296 108.535 84.227 108.6 84.2374C108.7 84.2532 111.08 84.6486 113.192 86.8514C116.654 90.4641 116.647 96.0969 116.031 100.186C116.009 100.333 115.895 100.457 115.736 100.507L62.4059 117.223C62.3559 117.238 62.3049 117.246 62.2547 117.246Z" fill="#161616"/>
<path d="M56.8272 118.012C63.3341 118.012 68.6091 113.377 68.6091 107.66C68.6091 101.942 63.3341 97.3072 56.8272 97.3072C50.3202 97.3072 45.0453 101.942 45.0453 107.66C45.0453 113.377 50.3202 118.012 56.8272 118.012Z" fill="#DEE5DC"/>
<path d="M56.8272 118.408C50.0824 118.408 44.5952 113.586 44.5952 107.66C44.5952 101.733 50.0824 96.9119 56.8272 96.9119C63.5719 96.9119 69.0591 101.733 69.0591 107.66C69.0591 113.586 63.5719 118.408 56.8272 118.408ZM56.8272 97.7026C50.5788 97.7026 45.4952 102.169 45.4952 107.66C45.4952 113.15 50.5788 117.617 56.8272 117.617C63.0755 117.617 68.1591 113.15 68.1591 107.66C68.1591 102.169 63.0755 97.7026 56.8272 97.7026Z" fill="#161616"/>
<path d="M56.8272 110.606C58.679 110.606 60.1802 109.287 60.1802 107.66C60.1802 106.033 58.679 104.713 56.8272 104.713C54.9753 104.713 53.4741 106.033 53.4741 107.66C53.4741 109.287 54.9753 110.606 56.8272 110.606Z" fill="#EAEFE8"/>
<path d="M56.8272 111.001C54.7302 111.001 53.0241 109.502 53.0241 107.66C53.0241 105.817 54.7302 104.318 56.8272 104.318C58.9242 104.318 60.6302 105.817 60.6302 107.66C60.6302 109.502 58.9242 111.001 56.8272 111.001ZM56.8272 105.109C55.2264 105.109 53.9241 106.253 53.9241 107.66C53.9241 109.066 55.2264 110.211 56.8272 110.211C58.4279 110.211 59.7302 109.066 59.7302 107.66C59.7302 106.253 58.4279 105.109 56.8272 105.109Z" fill="#161616"/>
<path d="M78.6128 99.9273L131.904 87.2466C131.904 87.2466 141.087 88.6893 138.968 102.754L85.6383 119.47" fill="#161616"/>
<path d="M85.6384 119.866C85.4535 119.866 85.2801 119.765 85.2146 119.603C85.1311 119.397 85.2531 119.171 85.4873 119.098L138.558 102.463C139.341 96.9717 138.434 92.6738 135.928 90.0243C134.248 88.2471 132.348 87.7481 131.915 87.6539L78.7307 100.309C78.4905 100.367 78.2438 100.242 78.1788 100.031C78.1138 99.8199 78.2556 99.6029 78.4956 99.5458L131.787 86.8651C131.851 86.8498 131.919 86.8471 131.984 86.8575C132.084 86.8733 134.464 87.2687 136.576 89.4715C140.038 93.0842 140.031 98.7171 139.415 102.806C139.393 102.953 139.279 103.077 139.12 103.127L85.7894 119.843C85.7395 119.858 85.6884 119.866 85.6384 119.866Z" fill="#161616"/>
<path d="M80.2108 120.632C86.7178 120.632 91.9927 115.997 91.9927 110.28C91.9927 104.562 86.7178 99.9273 80.2108 99.9273C73.7038 99.9273 68.4289 104.562 68.4289 110.28C68.4289 115.997 73.7038 120.632 80.2108 120.632Z" fill="#DEE5DC"/>
<path d="M80.2107 121.028C73.466 121.028 67.9789 116.206 67.9789 110.28C67.9789 104.353 73.466 99.5319 80.2107 99.5319C86.9555 99.5319 92.4428 104.353 92.4428 110.28C92.4428 116.206 86.9553 121.028 80.2107 121.028ZM80.2107 100.323C73.9624 100.323 68.8789 104.789 68.8789 110.28C68.8789 115.77 73.9624 120.237 80.2107 120.237C86.4593 120.237 91.5428 115.77 91.5428 110.28C91.5428 104.789 86.4593 100.323 80.2107 100.323Z" fill="#161616"/>
<path d="M80.2108 113.226C82.0627 113.226 83.5639 111.907 83.5639 110.28C83.5639 108.653 82.0627 107.334 80.2108 107.334C78.359 107.334 76.8578 108.653 76.8578 110.28C76.8578 111.907 78.359 113.226 80.2108 113.226Z" fill="#EAEFE8"/>
<path d="M80.2108 113.622C78.1138 113.622 76.4077 112.122 76.4077 110.28C76.4077 108.437 78.1138 106.938 80.2108 106.938C82.3078 106.938 84.0138 108.437 84.0138 110.28C84.0138 112.122 82.3078 113.622 80.2108 113.622ZM80.2108 107.729C78.61 107.729 77.3077 108.873 77.3077 110.28C77.3077 111.686 78.61 112.831 80.2108 112.831C81.8115 112.831 83.1138 111.686 83.1138 110.28C83.1138 108.873 81.8115 107.729 80.2108 107.729Z" fill="#161616"/>
<path d="M51.161 74.7393L105.492 66.1115C105.492 66.1115 114.5 68.2394 111.02 82.0934L56.2577 94.7389" fill="#161616"/>
<path d="M56.2576 95.1344C56.058 95.1344 55.8756 95.0169 55.8225 94.8395C55.7593 94.6282 55.903 94.412 56.1435 94.3564L110.639 81.7727C111.954 76.3603 111.468 72.0099 109.23 69.1814C107.729 67.2846 105.885 66.6447 105.463 66.5181L51.2412 75.1284C50.9971 75.1678 50.7626 75.0246 50.7183 74.8095C50.674 74.5947 50.8365 74.389 51.081 74.3502L105.412 65.7224C105.478 65.7121 105.544 65.7143 105.609 65.7297C105.707 65.7528 108.04 66.326 109.929 68.6793C113.027 72.5391 112.471 78.1507 111.459 82.1787C111.423 82.3234 111.298 82.4382 111.134 82.4759L56.3722 95.1213C56.3339 95.1302 56.2954 95.1344 56.2576 95.1344Z" fill="#161616"/>
<path d="M51.7453 95.5267C58.2523 95.5267 63.5272 90.8917 63.5272 85.1741C63.5272 79.4566 58.2523 74.8216 51.7453 74.8216C45.2383 74.8216 39.9634 79.4566 39.9634 85.1741C39.9634 90.8917 45.2383 95.5267 51.7453 95.5267Z" fill="#DEE5DC"/>
<path d="M51.7587 95.9228C51.4073 95.9228 51.0508 95.9093 50.6989 95.8827C43.9789 95.3755 38.9814 90.1591 39.5583 84.2544C39.822 81.5558 41.2199 79.0648 43.4945 77.2392C45.7559 75.4245 48.6812 74.4252 51.7321 74.4252C52.0834 74.4252 52.44 74.4386 52.7919 74.4652C59.5118 74.9724 64.5095 80.1888 63.9325 86.0935C63.6688 88.7921 62.2709 91.2832 59.996 93.1087C57.7349 94.9233 54.8093 95.9228 51.7587 95.9228ZM51.7321 75.2163C48.9066 75.2163 46.1967 76.1422 44.1015 77.8235C41.9942 79.5143 40.6993 81.8223 40.4549 84.3223C39.9203 89.7925 44.5502 94.625 50.7757 95.0948C51.1021 95.1194 51.4327 95.1319 51.7585 95.1319C54.584 95.1319 57.2939 94.206 59.3891 92.5248C61.4963 90.834 62.7913 88.5259 63.0357 86.026C63.5703 80.5558 58.9405 75.7232 52.7149 75.2535C52.3885 75.2288 52.0579 75.2163 51.7321 75.2163Z" fill="#161616"/>
<path d="M51.7454 88.1204C53.5972 88.1204 55.0984 86.8013 55.0984 85.1742C55.0984 83.547 53.5972 82.2279 51.7454 82.2279C49.8936 82.2279 48.3924 83.547 48.3924 85.1742C48.3924 86.8013 49.8936 88.1204 51.7454 88.1204Z" fill="#EAEFE8"/>
<path d="M51.7494 88.5158C51.6401 88.5158 51.5292 88.5117 51.42 88.5035C50.4078 88.4271 49.4902 88.0091 48.8361 87.3263C48.1819 86.6435 47.8693 85.7777 47.9562 84.8883C48.1236 83.1748 49.7863 81.8325 51.7414 81.8325C51.8507 81.8325 51.9616 81.8366 52.0708 81.8448C53.083 81.9212 54.0004 82.3394 54.6547 83.0222C55.309 83.7048 55.6215 84.5707 55.5346 85.4599C55.367 87.1735 53.7043 88.5158 51.7494 88.5158ZM51.7414 82.6233C50.2496 82.6233 48.9808 83.648 48.853 84.956C48.7867 85.6349 49.0252 86.2958 49.5246 86.817C50.0241 87.3383 50.7246 87.6573 51.497 87.7157C51.5809 87.722 51.6658 87.7253 51.7494 87.7253C53.2412 87.7253 54.5098 86.7006 54.6378 85.3926C54.7041 84.7137 54.4656 84.0529 53.9662 83.5316C53.4667 83.0103 52.7664 82.6913 51.9938 82.6329C51.9099 82.6264 51.825 82.6233 51.7414 82.6233Z" fill="#161616"/>
<path d="M67.8139 60.6518L122.668 55.1435C122.668 55.1435 131.5 57.781 127.003 71.4068L71.4214 80.8999" fill="#161616"/>
<path d="M71.4207 81.2953C71.2097 81.2953 71.0213 81.1642 70.9795 80.9754C70.9322 80.7612 71.0915 80.5536 71.3354 80.5118L126.646 71.0649C128.359 65.7392 128.196 61.3704 126.171 58.4202C124.814 56.4416 123.021 55.6977 122.609 55.5475L67.865 61.0446C67.6186 61.0715 67.395 60.9136 67.3667 60.6968C67.3385 60.4798 67.5158 60.2838 67.7627 60.259L122.617 54.7508C122.683 54.7441 122.75 54.7503 122.813 54.7691C122.909 54.7981 125.194 55.5029 126.905 57.9591C129.712 61.9877 128.742 67.5555 127.435 71.517C127.388 71.6594 127.254 71.7668 127.089 71.7951L71.5069 81.2882C71.4781 81.293 71.4491 81.2953 71.4207 81.2953Z" fill="#161616"/>
<path d="M67.6254 81.4505C74.1324 81.4505 79.4073 76.8155 79.4073 71.0979C79.4073 65.3803 74.1324 60.7453 67.6254 60.7453C61.1184 60.7453 55.8435 65.3803 55.8435 71.0979C55.8435 76.8155 61.1184 81.4505 67.6254 81.4505Z" fill="#DEE5DC"/>
<path d="M67.6399 81.8473C67.0249 81.8473 66.4021 81.8057 65.7894 81.7241C62.5593 81.2933 59.7133 79.783 57.7758 77.4711C55.8382 75.1593 55.0416 72.3231 55.5321 69.4847C55.974 66.9276 57.4496 64.5965 59.6872 62.9206C61.9021 61.2619 64.7162 60.3484 67.611 60.3484C68.226 60.3484 68.8486 60.3898 69.4614 60.4714C76.1296 61.3611 80.731 66.8519 79.7185 72.711C79.2768 75.2681 77.8011 77.5991 75.5635 79.275C73.3486 80.9338 70.5347 81.8473 67.6399 81.8473ZM67.611 61.1393C64.9299 61.1393 62.3233 61.9858 60.2709 63.5226C58.198 65.0749 56.8311 67.2345 56.4218 69.6033C55.9675 72.2329 56.7057 74.8605 58.5004 77.0022C60.2952 79.1439 62.9319 80.5431 65.9244 80.9422C66.4926 81.0179 67.0697 81.0565 67.6399 81.0565C70.3209 81.0565 72.9276 80.21 74.9798 78.6732C77.0525 77.121 78.4194 74.9614 78.8287 72.5926C79.7667 67.1644 75.504 62.0777 69.3262 61.2535C68.7581 61.1776 68.181 61.1393 67.611 61.1393Z" fill="#161616"/>
<path d="M67.6254 74.0443C69.4773 74.0443 70.9786 72.7252 70.9786 71.0979C70.9786 69.4707 69.4773 68.1515 67.6254 68.1515C65.7735 68.1515 64.2722 69.4707 64.2722 71.0979C64.2722 72.7252 65.7735 74.0443 67.6254 74.0443Z" fill="#EAEFE8"/>
<path d="M67.6301 74.4398C67.4387 74.4398 67.2451 74.427 67.0544 74.4015C64.9814 74.125 63.5507 72.418 63.8654 70.5962C64.1455 68.977 65.7602 67.756 67.6216 67.756C67.8128 67.756 68.0061 67.7688 68.1962 67.7941C70.2694 68.0709 71.7001 69.7779 71.3854 71.5996C71.1057 73.2189 69.4911 74.4398 67.6301 74.4398ZM67.6216 68.5469C66.2012 68.5469 64.969 69.4791 64.7551 70.7152C64.515 72.1056 65.6071 73.4085 67.1894 73.6197C67.3356 73.6391 67.4836 73.6491 67.6299 73.6491C69.0501 73.6491 70.282 72.7171 70.4955 71.4812C70.7356 70.0906 69.6436 68.7875 68.061 68.5762C67.9156 68.5566 67.7676 68.5469 67.6216 68.5469Z" fill="#161616"/>
<path d="M73.9169 79.8416L128.248 71.2139C128.248 71.2139 137.256 73.3417 133.776 87.1957L79.014 99.8413" fill="#161616"/>
<path d="M79.0137 100.237C78.814 100.237 78.6317 100.119 78.5786 99.9419C78.5154 99.7306 78.6591 99.5144 78.8995 99.4588L133.395 86.8749C134.33 83.0225 134.8 77.7886 131.949 74.2375C130.445 72.3636 128.637 71.7433 128.22 71.6202L73.9969 80.2306C73.7528 80.2702 73.5183 80.1269 73.474 79.9118C73.4297 79.697 73.5922 79.4912 73.8369 79.4525L128.168 70.8248C128.233 70.8147 128.3 70.8167 128.365 70.8321C128.463 70.8552 130.796 71.4282 132.685 73.7815C135.783 77.6413 135.227 83.253 134.215 87.2809C134.179 87.4256 134.054 87.5404 133.89 87.5781L79.1281 100.224C79.09 100.233 79.0515 100.237 79.0137 100.237Z" fill="#161616"/>
<path d="M74.5012 100.629C81.0082 100.629 86.2831 95.9939 86.2831 90.2764C86.2831 84.5588 81.0082 79.9238 74.5012 79.9238C67.9942 79.9238 62.7193 84.5588 62.7193 90.2764C62.7193 95.9939 67.9942 100.629 74.5012 100.629Z" fill="#DEE5DC"/>
<path d="M74.5147 101.025C74.1631 101.025 73.8066 101.012 73.4545 100.985C70.1992 100.739 67.2477 99.3945 65.1435 97.1984C63.0393 95.002 62.0346 92.2172 62.3141 89.3568C62.5778 86.6582 63.9757 84.1672 66.2503 82.3416C68.5115 80.527 71.437 79.5278 74.4877 79.5278C74.839 79.5278 75.1956 79.5412 75.5475 79.5678C78.8028 79.8136 81.7545 81.1583 83.8585 83.3545C85.9627 85.5508 86.9674 88.3356 86.6879 91.1959C86.4242 93.8945 85.0263 96.3856 82.7518 98.2111C80.4909 100.026 77.5653 101.025 74.5147 101.025ZM74.4879 80.3186C71.6622 80.3186 68.9525 81.2445 66.8573 82.9256C64.75 84.6165 63.4551 86.9244 63.2109 89.4244C62.9518 92.0744 63.8828 94.6542 65.832 96.6889C67.7812 98.7237 70.5158 99.9694 73.5315 100.197C73.858 100.222 74.1887 100.234 74.5147 100.234C77.3401 100.234 80.05 99.3083 82.1451 97.6272C84.2521 95.9364 85.5471 93.6283 85.7915 91.1284C86.0505 88.4784 85.1196 85.8986 83.1703 83.8638C81.2211 81.829 78.4866 80.5833 75.4708 80.3558C75.1443 80.3311 74.8137 80.3186 74.4879 80.3186Z" fill="#161616"/>
<path d="M74.5012 93.2226C76.3531 93.2226 77.8543 91.9035 77.8543 90.2764C77.8543 88.6492 76.3531 87.3301 74.5012 87.3301C72.6494 87.3301 71.1482 88.6492 71.1482 90.2764C71.1482 91.9035 72.6494 93.2226 74.5012 93.2226Z" fill="#EAEFE8"/>
<path d="M74.5052 93.618C74.396 93.618 74.2851 93.6139 74.1758 93.6057C73.1637 93.5293 72.246 93.1113 71.5919 92.4285C70.9378 91.7457 70.6251 90.8799 70.7121 89.9906C70.8797 88.2769 72.5421 86.9347 74.4973 86.9347C74.6066 86.9347 74.7173 86.9388 74.8267 86.947C76.916 87.1049 78.4699 88.7267 78.2904 90.5623C78.123 92.2759 76.4604 93.618 74.5052 93.618ZM74.4973 87.7254C73.0055 87.7254 71.7366 88.7501 71.6088 90.0581C71.5426 90.7369 71.7811 91.3979 72.2804 91.9191C72.7799 92.4404 73.4805 92.7594 74.2529 92.8177C74.3367 92.8241 74.4217 92.8274 74.5052 92.8274C75.9971 92.8274 77.2657 91.8026 77.3937 90.4948C77.5305 89.0936 76.3445 87.8554 74.7497 87.7352C74.6658 87.7287 74.5808 87.7254 74.4973 87.7254Z" fill="#161616"/>
<path d="M88.9563 101.812C88.7988 101.812 88.6542 101.72 88.6098 101.58C88.5561 101.412 88.6679 101.238 88.8594 101.19L134.479 89.9716C134.67 89.9244 134.869 90.0225 134.922 90.1909C134.976 90.3591 134.864 90.5337 134.673 90.5808L89.0535 101.8C89.0211 101.808 88.9883 101.812 88.9563 101.812Z" fill="#AFB7AC"/>
<path d="M91.2962 104.658C91.1387 104.658 90.9942 104.567 90.9497 104.427C90.8961 104.259 91.0079 104.085 91.1994 104.037L136.819 92.8186C137.011 92.7713 137.209 92.8696 137.262 93.0379C137.316 93.2061 137.204 93.3807 137.013 93.4278L91.3934 104.647C91.361 104.655 91.3283 104.658 91.2962 104.658Z" fill="#AFB7AC"/>
<path d="M93.6362 108.613C93.4811 108.613 93.3378 108.524 93.2914 108.386C93.2347 108.219 93.3434 108.043 93.5338 107.993L137.713 96.4577C137.903 96.4077 138.104 96.5034 138.161 96.6709C138.217 96.8384 138.109 97.0145 137.918 97.0641L93.7388 108.599C93.7048 108.608 93.6703 108.613 93.6362 108.613Z" fill="#AFB7AC"/>
<path d="M93.0965 113.199C92.9456 113.199 92.805 113.115 92.755 112.983C92.6922 112.817 92.7944 112.638 92.983 112.583L137.882 99.466C138.071 99.4103 138.275 99.5006 138.337 99.6664C138.4 99.8321 138.298 100.011 138.109 100.066L93.21 113.183C93.1724 113.194 93.1341 113.199 93.0965 113.199Z" fill="#AFB7AC"/>
<path d="M84.4869 81.5238C84.3179 81.5238 84.1672 81.4189 84.1339 81.2677C84.0961 81.0961 84.2237 80.9302 84.4188 80.8968L129.167 73.2727C129.362 73.2401 129.551 73.3515 129.589 73.5231C129.627 73.6947 129.499 73.8606 129.304 73.894L84.556 81.5181C84.5326 81.522 84.5096 81.5238 84.4869 81.5238Z" fill="#AFB7AC"/>
<path d="M86.4775 84.415C86.3086 84.415 86.158 84.3102 86.1245 84.159C86.0867 83.9874 86.2141 83.8215 86.4094 83.7881L131.157 76.1638C131.353 76.1309 131.541 76.2426 131.579 76.4142C131.617 76.5858 131.49 76.7517 131.294 76.7851L86.5466 84.4094C86.5234 84.4131 86.5003 84.415 86.4775 84.415Z" fill="#AFB7AC"/>
<path d="M88.3697 88.3677C88.203 88.3677 88.0534 88.2655 88.0178 88.1166C87.9767 87.9456 88.1013 87.7778 88.2959 87.7419L131.691 79.7154C131.884 79.6792 132.076 79.7889 132.117 79.9598C132.158 80.1307 132.034 80.2985 131.839 80.3344L88.4442 88.3609C88.4192 88.3655 88.3943 88.3677 88.3697 88.3677Z" fill="#AFB7AC"/>
<path d="M87.4437 92.7292C87.2817 92.7292 87.1345 92.6326 87.0943 92.488C87.0472 92.3183 87.1654 92.1472 87.3586 92.1056L131.585 82.6122C131.778 82.5707 131.972 82.6746 132.02 82.8444C132.067 83.0141 131.948 83.1852 131.755 83.2266L87.5294 92.7204C87.5008 92.7264 87.4721 92.7292 87.4437 92.7292Z" fill="#AFB7AC"/>
<path d="M80.7049 63.7212C80.5251 63.7212 80.3697 63.6031 80.3479 63.4422C80.3244 63.2687 80.4653 63.1113 80.6629 63.0906L122.496 58.7119C122.693 58.6926 122.873 58.815 122.896 58.9886C122.92 59.1621 122.779 59.3195 122.581 59.3402L80.7479 63.719C80.7335 63.7204 80.7189 63.7212 80.7049 63.7212Z" fill="#AFB7AC"/>
<path d="M96.2444 65.4301C96.067 65.4301 95.9125 65.3148 95.8882 65.1562C95.8618 64.983 95.9998 64.8236 96.1969 64.8003L124.104 61.4955C124.301 61.4734 124.482 61.5936 124.509 61.7668C124.535 61.94 124.397 62.0994 124.2 62.1226L96.293 65.4274C96.2768 65.4292 96.2605 65.4301 96.2444 65.4301Z" fill="#AFB7AC"/>
<path d="M83.7593 70.2598C83.582 70.2598 83.4274 70.1445 83.4031 69.986C83.3764 69.8128 83.5145 69.6534 83.7116 69.6302L124.329 64.8005C124.525 64.7768 124.707 64.8982 124.734 65.0714C124.761 65.2446 124.623 65.404 124.425 65.4274L83.8081 70.2571C83.7917 70.2589 83.7753 70.2598 83.7593 70.2598Z" fill="#AFB7AC"/>
<path d="M82.5711 74.2255C82.3987 74.2255 82.246 74.1162 82.2165 73.9616C82.1836 73.7892 82.3157 73.6262 82.5119 73.5971L124.008 67.4641C124.203 67.435 124.39 67.5515 124.423 67.7237C124.456 67.8961 124.324 68.0592 124.127 68.0883L82.6312 74.2212C82.6111 74.224 82.5911 74.2255 82.5711 74.2255Z" fill="#AFB7AC"/>
<path d="M120.166 54.3546C119.7 54.3546 119.199 54.2869 118.675 54.1533C118.644 54.1452 118.614 54.1343 118.585 54.1204L110.554 50.2555C110.286 50.1358 103.719 47.0649 103.661 35.8029C103.66 35.6531 103.755 35.5158 103.908 35.4481C104.06 35.3806 104.242 35.3943 104.379 35.4838L114.84 42.3227V28.6303C114.84 28.4663 114.955 28.3192 115.13 28.2608C115.304 28.2025 115.502 28.2447 115.626 28.3673C116.949 29.6717 120.854 33.057 122.999 33.057C123.33 33.057 123.593 32.9732 123.802 32.8008C123.933 32.6926 124.124 32.6633 124.289 32.7261C124.453 32.7887 124.56 32.9312 124.56 33.0889V48.9013C124.522 50.7921 123.555 54.3546 120.166 54.3546ZM118.973 53.4056C119.397 53.5107 119.798 53.5638 120.166 53.5638C123.527 53.5638 123.66 48.9408 123.66 48.8943V33.7649C123.48 33.8201 123.234 33.8478 122.999 33.8478C120.693 33.8478 117.272 31.013 115.74 29.6291V43.1095C115.74 43.259 115.644 43.3958 115.492 43.4629C115.34 43.5298 115.158 43.5158 115.021 43.4266L104.577 36.5986C104.686 39.6315 105.371 43.6117 107.796 46.7644C109.371 48.8118 110.96 49.5495 110.975 49.5567L118.973 53.4056Z" fill="#161616"/>
<path d="M116.91 30.2882C116.661 30.2882 116.46 30.1112 116.46 29.8928V24.035C116.059 23.32 114.167 19.7488 115.593 18.3586C117.005 16.9816 119.09 16.5419 119.178 16.5237C119.33 16.4927 119.489 16.5327 119.598 16.6294C119.708 16.726 119.754 16.8658 119.718 16.999C119.707 17.0428 119.476 17.8912 118.929 18.6222C119.475 18.8734 120.144 19.4564 120.303 20.809C120.329 21.0262 120.149 21.2205 119.902 21.2428C119.654 21.2659 119.433 21.1076 119.408 20.8903C119.216 19.2582 118.174 19.2228 118.163 19.2226C117.983 19.2196 117.823 19.1231 117.755 18.9768C117.687 18.8305 117.724 18.6629 117.85 18.5501C118.157 18.276 118.396 17.8861 118.565 17.5361C117.904 17.7715 116.97 18.1968 116.261 18.8881C115.441 19.6878 116.47 22.3027 117.312 23.763C117.343 23.8185 117.36 23.8796 117.36 23.9417V29.8928C117.36 30.1112 117.159 30.2882 116.91 30.2882Z" fill="#161616"/>
<path d="M122.49 32.3443C122.241 32.3443 122.04 32.1673 122.04 31.9489V26.01C122.04 25.9069 122.086 25.8079 122.168 25.734L124.993 23.1876C125.166 23.0312 125.451 23.0282 125.629 23.1805C125.807 23.333 125.811 23.5833 125.637 23.7396L122.94 26.1709V31.9489C122.94 32.1673 122.739 32.3443 122.49 32.3443Z" fill="#161616"/>
<path d="M134.25 25.3478C131.818 25.3478 128.822 24.0048 128.558 23.884L119.625 20.3726C119.398 20.2834 119.296 20.0495 119.398 19.8502C119.499 19.6509 119.766 19.5616 119.992 19.6506L128.938 23.1669C128.946 23.1702 128.955 23.1739 128.963 23.1776C129.004 23.1963 133.082 25.0547 135.265 24.435C135.739 24.3003 136.071 24.0586 136.277 23.6958C136.378 23.5174 136.381 23.3088 136.285 23.0581C135.464 20.9118 128.388 17.4506 125.73 16.2982C121.419 14.2781 114.854 11.9707 113.717 13.1469C113.4 13.475 113.274 13.83 113.331 14.2326C113.526 15.6073 115.705 16.9865 115.727 17.0003C115.929 17.127 115.977 17.3738 115.832 17.5516C115.688 17.7296 115.408 17.771 115.205 17.6448C115.102 17.5806 112.683 16.0519 112.438 14.3319C112.349 13.7056 112.548 13.1348 113.031 12.635C113.963 11.6703 116.414 11.8935 120.523 13.3184C123.417 14.3219 126.114 15.582 126.141 15.5945C126.532 15.7639 136.03 19.9113 137.138 22.806C137.312 23.26 137.293 23.6784 137.082 24.0494C136.766 24.6044 136.247 24.9874 135.54 25.1877C135.145 25.3002 134.707 25.3476 134.25 25.3478Z" fill="#161616"/>
<path d="M136.806 23.3031C136.636 23.3031 136.473 23.2177 136.397 23.073C133.94 18.3867 129.562 15.2371 123.386 13.7113C118.749 12.5657 114.783 12.8189 114.743 12.8215C114.493 12.8381 114.279 12.6756 114.26 12.458C114.241 12.2404 114.425 12.0501 114.673 12.033C114.84 12.0216 118.814 11.7654 123.601 12.9428C128.04 14.0347 134.005 16.6212 137.214 22.7421C137.318 22.9404 137.219 23.1753 136.994 23.2666C136.933 23.2914 136.869 23.3031 136.806 23.3031Z" fill="#161616"/>
<path d="M133.969 19.32C133.882 19.32 133.795 19.298 133.717 19.2522C133.511 19.1299 133.457 18.884 133.597 18.703C133.61 18.685 135.014 16.8153 134.476 14.7636C134.129 13.4431 133.056 12.315 131.284 11.4103C128.675 10.0773 126.237 9.90044 124.038 10.8847C122.395 11.6205 121.512 12.7475 121.503 12.7589C121.364 12.9397 121.084 12.9867 120.878 12.8643C120.673 12.7417 120.619 12.4957 120.759 12.315C120.799 12.2634 124.822 7.19458 131.737 10.7267C133.735 11.7473 134.952 13.0488 135.355 14.5944C135.977 16.9847 134.409 19.059 134.342 19.146C134.255 19.2593 134.113 19.32 133.969 19.32Z" fill="#161616"/>
<path d="M134.812 17.6212C134.663 17.6212 134.516 17.5556 134.43 17.4357C131.123 12.7947 122.354 11.8278 122.266 11.8185C122.019 11.7927 121.843 11.5961 121.872 11.3793C121.901 11.1626 122.126 11.0079 122.372 11.0332C122.466 11.043 124.71 11.283 127.417 12.1306C131.034 13.2629 133.723 14.9522 135.194 17.0158C135.325 17.2008 135.262 17.4448 135.051 17.5608C134.976 17.6017 134.894 17.6212 134.812 17.6212Z" fill="#161616"/>
<path d="M124.046 33.4844C123.929 33.4844 123.812 33.4442 123.723 33.3643C123.55 33.2077 123.555 32.9574 123.733 32.8052C124.026 32.5545 124.154 32.2885 124.122 31.9919C124.033 31.1473 122.725 30.214 122.229 29.9257C122.022 29.8052 121.965 29.56 122.101 29.3778C122.238 29.1958 122.517 29.1456 122.724 29.2654C122.944 29.3924 124.871 30.5454 125.018 31.917C125.076 32.4525 124.848 32.9558 124.36 33.3727C124.272 33.4474 124.159 33.4844 124.046 33.4844Z" fill="#161616"/>
<path d="M97.0283 27.6867C96.4406 27.6867 95.9544 27.4153 95.8905 27.3783C95.6833 27.2576 95.6268 27.0123 95.764 26.8302C95.9011 26.6487 96.1789 26.5989 96.3861 26.7181C96.5072 26.7867 96.8879 26.949 97.1953 26.8779C97.3705 26.8374 97.513 26.7211 97.6311 26.5226C97.7463 26.329 98.0181 26.2544 98.2384 26.3553C98.4588 26.4565 98.5439 26.6953 98.4289 26.8889C98.1297 27.3919 97.7132 27.5774 97.4166 27.6443C97.2846 27.6744 97.1541 27.6867 97.0283 27.6867Z" fill="#161616"/>
<path d="M103.62 26.7213C103.032 26.7213 102.546 26.4499 102.482 26.4129C102.275 26.2922 102.218 26.0469 102.355 25.8649C102.493 25.6833 102.77 25.6335 102.978 25.7527C103.099 25.8217 103.48 25.9838 103.787 25.9125C103.962 25.872 104.104 25.7557 104.223 25.5572C104.338 25.3636 104.61 25.2888 104.83 25.3899C105.05 25.4911 105.135 25.7299 105.02 25.9235C104.721 26.4265 104.305 26.612 104.008 26.6791C103.876 26.709 103.745 26.7213 103.62 26.7213Z" fill="#161616"/>
<path d="M100.042 34.4435C99.0192 34.4435 97.9002 34.3353 96.6886 34.1191C94.5518 33.7374 92.946 33.157 92.8785 33.1325C92.649 33.0488 92.5401 32.8176 92.6352 32.6158C92.7302 32.4143 92.9936 32.3181 93.2231 32.4018C93.2855 32.4245 99.5247 34.6597 103.376 33.0906C106.396 31.8604 104.239 25.9027 103.153 23.7107C103.054 23.5104 103.158 23.2775 103.386 23.1903C103.614 23.1027 103.879 23.1946 103.978 23.395C104.152 23.7456 108.183 32.0043 103.755 33.8081C102.716 34.2317 101.474 34.4435 100.042 34.4435Z" fill="#161616"/>
<path d="M91.0103 35.0932C90.7891 35.0932 90.5963 34.9501 90.565 34.752L89.8364 30.1278C88.8588 30.1207 87.9928 29.8218 87.4654 29.297C87.0831 28.9166 86.6853 28.2272 86.9616 27.1028C87.1294 26.4205 87.5804 26.1045 87.9293 25.9597C89.1713 25.4446 91.0114 26.247 91.2172 26.3403C91.4382 26.4404 91.5248 26.6787 91.411 26.8728C91.2973 27.0667 91.0262 27.1426 90.8051 27.0433C90.3544 26.8401 89.0276 26.3778 88.3129 26.6751C88.1572 26.7398 87.939 26.8719 87.8414 27.2695C87.6834 27.9129 87.7838 28.419 88.1401 28.7733C88.5551 29.1864 89.3212 29.3924 90.1865 29.3245C90.4248 29.3043 90.6392 29.4551 90.6721 29.6641L91.4567 34.6434C91.4907 34.8596 91.3189 35.0593 91.0726 35.0892C91.0516 35.0919 91.0309 35.0932 91.0103 35.0932Z" fill="#161616"/>
<path d="M93.051 28.4693H93.8356L93.051 23.5761L85.9889 18.8215C85.9889 18.8215 82.3793 21.7309 84.2627 26.3555C86.1458 30.9803 90.3868 30.7406 90.3868 30.7406C90.3868 30.7406 91.2335 29.7734 90.2261 29.7177C89.197 29.6613 87.3189 29.377 87.4013 27.2107C87.4791 25.1664 91.9525 26.255 93.051 28.4693Z" fill="#161616"/>
<path d="M86.6165 18.2879L93.8356 23.5531C93.8356 23.5531 101.604 23.459 104.115 22.4248L104.978 24.3555C104.978 24.3555 108.666 19.2531 104.115 15.8746C99.5639 12.4962 91.3248 10.4966 86.6165 18.2879Z" fill="#161616"/>
<path d="M81.7515 68.5655C81.641 68.5655 81.5335 68.5297 81.45 68.4636C81.3469 68.3818 81.2925 68.2627 81.3028 68.1411L83.3893 43.0899C83.4014 42.7149 83.7436 35.4132 90.9907 35.1301C91.0532 35.1274 91.113 35.1365 91.1679 35.1543C91.2867 35.1155 91.4222 35.1217 91.539 35.1773L97.4952 38.0118L101.858 34.6753C101.986 34.577 102.167 34.5509 102.325 34.608L103.847 35.1593C103.862 35.1647 103.877 35.1707 103.891 35.1773C104.1 35.2775 109.028 37.6895 109.351 43.0888C109.662 48.2826 109.355 63.7832 109.351 63.939C109.348 64.128 109.192 64.2883 108.98 64.3215L81.8304 68.5593C81.8041 68.5634 81.7778 68.5655 81.7515 68.5655ZM91.0559 35.9185C91.0476 35.9193 91.0392 35.9198 91.0307 35.9201C88.2976 36.027 86.3358 37.2504 85.2 39.5564C84.3286 41.3255 84.289 43.0975 84.2886 43.1152C84.2886 43.123 84.2883 43.1309 84.2875 43.1385L82.2426 67.6918L108.458 63.5998C108.5 61.3323 108.737 47.8787 108.452 43.1304C108.165 38.3422 103.8 36.0438 103.479 35.8813L102.239 35.4323L102.204 35.4589C102.302 35.5493 102.35 35.6792 102.32 35.8109L101.025 41.396C100.993 41.5354 100.878 41.6486 100.724 41.6929C100.571 41.7372 100.402 41.7055 100.282 41.61L97.643 39.5072L95.6648 42.1546C95.578 42.2708 95.4257 42.3364 95.2699 42.3327C95.1116 42.3268 94.9687 42.2485 94.8931 42.1262L91.0559 35.9185ZM92.444 36.5073L95.325 41.1681L97.1385 38.7412L92.444 36.5073ZM97.9681 38.6987L100.301 40.5576L101.327 36.1296L97.9681 38.6987Z" fill="#161616"/>
<path d="M92.88 65.6377H89.28V35.7448H91.4953L92.88 38.0641V65.6377Z" fill="#946D42"/>
<path d="M98.3849 56.6513C98.145 56.6513 97.9459 56.4851 97.9356 56.2723L97.1057 38.9201C97.0952 38.702 97.2882 38.5177 97.5364 38.5084C97.7821 38.5057 97.9945 38.6688 98.0049 38.887L98.8349 56.2393C98.8454 56.4574 98.6524 56.6417 98.4042 56.651C98.3977 56.6511 98.3914 56.6513 98.3849 56.6513Z" fill="#161616"/>
<path d="M105.66 65.6377H101.88V35.801L102.699 34.9736L105.66 36.9042V65.6377Z" fill="#946D42"/>
<path d="M81.72 68.2068V76.6189C81.72 76.6189 82.9206 82.2726 88.8606 80.8936C94.8008 79.5146 101.89 76.8946 101.89 76.8946C101.89 76.8946 106.083 75.2397 107.809 71.6545C109.535 68.0691 108.928 63.9322 108.928 63.9322L81.72 68.2068Z" fill="#946D42"/>
<path d="M84.3397 40.4891L77.7498 61.1741C77.7498 61.1741 77.1219 64.7596 80.1823 65.5867C83.2425 66.4141 84.341 65.8624 84.8119 65.5867C85.2828 65.3111 104.743 55.1291 104.743 55.1291L100.584 48.1429L86.852 54.0725" fill="#DEE5DC"/>
<path d="M82.9548 66.4193C82.2222 66.4193 81.2799 66.2974 80.0498 65.9648C77.3352 65.2309 77.0674 62.4709 77.305 61.114C77.3077 61.0982 77.3115 61.0829 77.3163 61.0676L83.9063 40.3825C83.9734 40.1721 84.2222 40.0495 84.4609 40.1084C84.7003 40.1672 84.84 40.3855 84.7728 40.5957L78.1908 61.2561C78.1424 61.5643 77.7509 64.516 80.3144 65.2089C83.2776 66.01 84.2444 65.4438 84.5622 65.2579C85.0065 64.9976 101.389 56.4239 104.147 54.981L100.389 48.6679L87.0504 54.4274C86.8272 54.5232 86.5575 54.4427 86.4481 54.2468C86.3385 54.0508 86.4304 53.8139 86.6535 53.7174L100.385 47.7878C100.605 47.6933 100.869 47.7695 100.983 47.9594L105.142 54.9458C105.252 55.132 105.178 55.3615 104.973 55.469C98.2498 58.9866 85.4359 65.6972 85.0614 65.9159C84.6439 66.1604 84.0219 66.4193 82.9548 66.4193Z" fill="#161616"/>
<path d="M102.703 28.9438H100.98C100.731 28.9438 100.53 28.7668 100.53 28.5484C100.53 28.33 100.731 28.153 100.98 28.153H101.95L101.21 26.943C101.092 26.7507 101.174 26.5111 101.393 26.4075C101.611 26.3042 101.884 26.376 102.002 26.5686L103.099 28.3613C103.174 28.4837 103.17 28.6319 103.089 28.7513C103.008 28.8707 102.861 28.9438 102.703 28.9438Z" fill="#161616"/>
<path d="M102.699 62.8105L112.393 51.9443C112.393 51.9443 117.341 49.016 119.868 50.9744C122.893 53.3185 122.76 57.5888 122.76 57.5888V79.6524C122.76 79.6524 126.66 82.9621 126.66 85.5821C126.66 85.5821 124.726 86.8232 119.904 85.5821C115.082 84.3412 110.88 79.5146 110.88 79.5146V69.4482L102.7 76.4844" fill="#946D42"/>
<path d="M87.2379 68.1694L96.9721 57.3125C96.9721 57.3125 101.981 54.3894 104.508 56.3475C107.533 58.6916 107.46 62.9668 107.46 62.9668V85.0306C107.46 85.0306 111.319 88.3401 111.319 90.9601C111.319 90.9601 109.315 92.2012 104.493 90.9601C99.6718 89.719 95.4 84.8927 95.4 84.8927V68.1683" fill="#946D42"/>
<path d="M95.49 72.9923C95.2415 72.9923 95.04 72.8153 95.04 72.5969V68.1683C95.04 67.9499 95.2415 67.7729 95.49 67.7729C95.7386 67.7729 95.94 67.9499 95.94 68.1683V72.5969C95.94 72.8153 95.7386 72.9923 95.49 72.9923Z" fill="#161616"/>
<path d="M107.37 72.9923C107.121 72.9923 106.92 72.8153 106.92 72.5969V62.9668C106.921 62.9177 106.979 58.8465 104.151 56.6548C103.01 55.7705 101.209 56.074 99.8998 56.4841C98.5963 56.8924 97.5125 57.4823 97.2533 57.6283L85.8015 70.6439C85.6494 70.8164 85.367 70.8485 85.1702 70.7147C84.9737 70.5812 84.9375 70.3329 85.0894 70.16L96.5878 57.0916C96.6175 57.058 96.653 57.0289 96.6931 57.0051C96.9082 56.8783 101.991 53.9263 104.746 56.0615C107.892 58.4993 107.82 62.7937 107.82 62.9753V72.5969C107.82 72.8153 107.619 72.9923 107.37 72.9923Z" fill="#161616"/>
<path d="M107.46 85.0306V72.5969H95.4V84.8927C95.4 84.8927 99.6986 89.719 104.521 90.9601C109.343 92.2012 111.299 90.9601 111.299 90.9601C111.299 88.3401 107.46 85.0306 107.46 85.0306Z" fill="#FBFCFA"/>
<path d="M108.472 91.9072C107.259 91.9072 105.902 91.7163 104.439 91.3397C102.372 90.8075 100.176 89.5999 97.9132 87.7506C96.2395 86.3827 95.1786 85.1851 95.1343 85.1348C95.0733 85.0655 95.0402 84.9803 95.0402 84.8928V72.5178C95.0402 72.2994 95.2416 72.1224 95.4902 72.1224H107.55C107.799 72.1224 108 72.2994 108 72.5178V84.8683C108.702 85.5035 111.816 88.4635 111.816 90.9603C111.816 91.0881 111.746 91.2078 111.628 91.282C111.587 91.3076 110.606 91.9072 108.472 91.9072ZM95.94 84.7541C96.5862 85.4544 100.454 89.4897 104.692 90.5807C106.073 90.9361 107.345 91.1164 108.472 91.1164C109.782 91.1164 110.566 90.871 110.906 90.7319C110.693 88.3384 107.27 85.3429 107.234 85.3119C107.148 85.2376 107.1 85.1364 107.1 85.0306V72.9132H95.94V84.7541Z" fill="#161616"/>
<path d="M107.568 85.426C107.443 85.426 107.318 85.3803 107.229 85.2909C106.199 84.2562 103.116 84.8253 102.015 85.1317C101.778 85.1983 101.525 85.0823 101.45 84.8742C101.375 84.666 101.506 84.4438 101.743 84.3779C101.788 84.3652 102.861 84.0693 104.133 83.9533C105.934 83.7892 107.203 84.0639 107.906 84.77C108.07 84.9343 108.051 85.184 107.864 85.3278C107.779 85.3937 107.673 85.426 107.568 85.426Z" fill="#161616"/>
<path d="M110.88 69.4482V79.5147C110.88 79.5147 115.129 84.3412 119.951 85.5821C124.773 86.8232 126.664 85.5821 126.664 85.5821C126.664 82.9621 122.76 79.6524 122.76 79.6524V67.0612H110.785L110.88 69.4482Z" fill="#FBFCFA"/>
<path d="M123.885 86.5292C122.683 86.5292 121.332 86.3383 119.869 85.9617C117.801 85.4294 115.613 84.2214 113.367 82.3715C111.705 81.0033 110.656 79.8053 110.613 79.755C110.552 79.6859 110.52 79.6014 110.52 79.5146V69.4611L110.336 67.008C110.328 66.899 110.371 66.7916 110.456 66.7118C110.541 66.6319 110.66 66.5867 110.785 66.5867H122.85C123.099 66.5867 123.3 66.7637 123.3 66.9821V79.4882C124.014 80.1242 127.181 83.084 127.181 85.5821C127.181 85.7077 127.113 85.8256 126.998 85.9003C126.959 85.9259 126.005 86.5292 123.885 86.5292ZM111.42 79.3773C112.058 80.0763 115.884 84.1119 120.122 85.2026C121.503 85.558 122.769 85.7383 123.885 85.7383C125.17 85.7383 125.937 85.4951 126.271 85.3559C126.056 82.9638 122.573 79.9671 122.536 79.9361C122.449 79.8616 122.4 79.7593 122.4 79.6524V67.3775H111.265L111.419 69.4222C111.419 69.4309 111.42 69.4395 111.42 69.4482V79.3773H111.42Z" fill="#161616"/>
<path d="M110.97 67.4566C110.721 67.4566 110.52 67.2796 110.52 67.0612V61.2091C110.52 60.9907 110.721 60.8137 110.97 60.8137C111.219 60.8137 111.42 60.9907 111.42 61.2091V67.0612C111.42 67.2796 111.219 67.4566 110.97 67.4566Z" fill="#161616"/>
<path d="M117.063 80.4714C116.884 80.4714 116.716 80.3777 116.645 80.2237C116.552 80.0212 116.664 79.7911 116.894 79.7093C117.028 79.6617 120.209 78.5536 123.071 79.2722C123.31 79.3323 123.448 79.5512 123.38 79.761C123.312 79.9712 123.063 80.0927 122.824 80.0328C120.263 79.3895 117.26 80.4321 117.23 80.4429C117.176 80.4622 117.119 80.4714 117.063 80.4714Z" fill="#161616"/>
<path d="M84.78 18.6632H83.34C83.0915 18.6632 82.89 18.4862 82.89 18.2678C82.89 18.0494 83.0915 17.8724 83.34 17.8724H84.78C85.0286 17.8724 85.23 18.0494 85.23 18.2678C85.23 18.4862 85.0286 18.6632 84.78 18.6632Z" fill="#161616"/>
<path d="M84.7334 17.3042C84.6155 17.3042 84.4976 17.2638 84.4094 17.1832L83.7033 16.5398C83.5308 16.3826 83.5359 16.1324 83.7148 15.9807C83.8937 15.8292 84.1787 15.8338 84.3511 15.9909L85.0572 16.6343C85.2297 16.7915 85.2246 17.0417 85.0457 17.1934C84.9584 17.2675 84.8459 17.3042 84.7334 17.3042Z" fill="#161616"/>
<path d="M99.8774 36.1964C99.6446 36.1964 99.4473 36.0387 99.4291 35.8312L99.2722 34.0384C99.2531 33.8208 99.4385 33.6306 99.6864 33.6139C99.935 33.5943 100.151 33.76 100.17 33.9778L100.327 35.7706C100.346 35.9882 100.16 36.1784 99.9124 36.1951C99.9006 36.1962 99.8889 36.1964 99.8774 36.1964Z" fill="#161616"/>
<path d="M101.745 49.5657L108.588 46.0745C108.588 46.0745 111.256 45.0401 112.825 46.0745C114.394 47.1087 116.278 49.5657 116.278 49.5657C116.278 49.5657 114.893 49.816 114.369 49.5657L113.61 48.2119C113.61 48.2119 115.364 51.2425 114.683 51.7956C114.002 52.3487 112.04 50.2802 112.04 50.2802C112.04 50.2802 114.08 53.3635 113.296 53.9594C112.511 54.5552 110.785 51.5718 110.785 51.5718C110.785 51.5718 109.216 53.6703 107.018 52.9693L104.586 54.038" fill="#DEE5DC"/>
<path d="M104.586 54.4336C104.421 54.4336 104.262 54.3534 104.183 54.2148C104.072 54.0195 104.162 53.7821 104.385 53.6844L106.817 52.6156C106.928 52.5671 107.056 52.5606 107.172 52.5978C109.004 53.1812 110.353 51.429 110.409 51.3541C110.498 51.2369 110.65 51.1691 110.811 51.1776C110.971 51.1857 111.114 51.2673 111.186 51.3926C111.816 52.4807 112.662 53.5082 113.019 53.6315C113.174 53.2961 112.544 51.8283 111.651 50.479C111.534 50.3014 111.591 50.0743 111.782 49.9563C111.974 49.8386 112.236 49.8693 112.386 50.027C113.121 50.8004 114.066 51.4951 114.377 51.4955C114.506 51.1917 114.06 49.9459 113.394 48.7209L113.206 48.3867C113.097 48.1917 113.187 47.9555 113.408 47.8583C113.629 47.7611 113.899 47.8386 114.011 48.0326C114.091 48.1713 114.176 48.3218 114.262 48.4806L114.695 49.2521C114.873 49.2879 115.169 49.2892 115.486 49.2656C114.853 48.5007 113.615 47.0893 112.555 46.3907C111.283 45.5522 109.029 46.3412 108.79 46.4286L101.971 49.9074C101.756 50.0173 101.48 49.953 101.356 49.764C101.231 49.5753 101.304 49.3331 101.519 49.2235L108.362 45.7324C108.376 45.7251 108.391 45.7185 108.406 45.7126C108.525 45.6667 111.335 44.598 113.095 45.758C114.707 46.8201 116.572 49.242 116.651 49.3447C116.735 49.454 116.751 49.5928 116.694 49.7149C116.638 49.837 116.515 49.9262 116.368 49.9528C116.201 49.983 115.584 50.086 115 50.0702C115.312 50.926 115.429 51.7284 114.988 52.086C114.812 52.2294 114.583 52.2971 114.326 52.283C114.07 52.2683 113.785 52.1606 113.5 52.0042C114.042 53.1956 114.067 53.8961 113.59 54.2585C113.396 54.4059 113.148 54.4627 112.891 54.4187C112.114 54.2844 111.224 53.0829 110.712 52.2876C109.943 53.0185 108.603 53.7971 107.054 53.3957L104.787 54.3917C104.723 54.42 104.654 54.4336 104.586 54.4336Z" fill="#161616"/>
<path d="M117.297 44.7459C117.203 44.7459 117.109 44.7201 117.028 44.6668L115.145 43.4259C114.946 43.2949 114.905 43.0469 115.055 42.8723C115.204 42.6977 115.486 42.6626 115.685 42.7932L117.568 44.0342C117.766 44.1651 117.807 44.4131 117.658 44.5878C117.569 44.6914 117.434 44.7459 117.297 44.7459Z" fill="#161616"/>
<path d="M119.809 13.8752C119.809 13.8752 117.01 13.4464 116.356 14.3962C115.702 15.3461 124.815 19.5289 124.815 19.5289C124.815 19.5289 133.698 23.4591 134.812 22.5277C135.76 21.735 133.489 19.9167 133.489 19.9167C133.489 19.9167 122.087 13.9089 119.809 13.8752Z" fill="#161616"/>
<path d="M96.2514 29.7958C96.1188 30.415 98.0687 32.2666 100.396 31.4968C101.651 31.0818 100.895 30.055 99.4351 30.055C98.6188 30.0549 96.6516 27.9282 96.2514 29.7958Z" fill="#161616"/>
<path d="M171.7 86.8377C171.592 86.8377 171.486 86.8034 171.402 86.7389L169.082 84.9394C168.895 84.7949 168.877 84.545 169.042 84.3813C169.206 84.2177 169.491 84.2021 169.677 84.3463L171.457 85.7263L173.013 80.7298C173.078 80.5194 173.324 80.3953 173.566 80.4528C173.805 80.5104 173.946 80.7279 173.881 80.9386L172.134 86.5467C172.093 86.6783 171.978 86.7821 171.829 86.8211C171.787 86.8323 171.743 86.8377 171.7 86.8377Z" fill="#161616"/>
<path d="M171.701 86.8379C171.67 86.8379 171.638 86.8349 171.607 86.8292L168.879 86.3226C168.636 86.2773 168.48 86.0676 168.532 85.8539C168.583 85.6401 168.823 85.5047 169.065 85.5487L171.793 86.0553C172.036 86.1005 172.192 86.3102 172.14 86.5239C172.096 86.7101 171.909 86.8379 171.701 86.8379Z" fill="#161616"/>
<path d="M163.768 69.3292C163.768 69.3292 168.129 75.8871 168.744 77.3383C169.36 78.7896 176.36 87.1476 184.4 82.6638C184.4 82.6638 188.769 81.1662 188.89 75.7276L173.963 69.8202C173.963 69.82 167.531 63.4639 163.768 69.3292Z" fill="#EAEFE8"/>
<path d="M179.572 84.301C179.572 84.301 179.571 84.301 179.571 84.301C173.413 84.301 168.838 78.659 168.323 77.4429C167.728 76.04 163.423 69.5775 163.38 69.5118C163.299 69.3907 163.298 69.2493 163.376 69.1267C164.52 67.344 166.023 66.4442 167.844 66.4442C170.892 66.4442 173.752 69.0348 174.232 69.4911L189.075 75.3659C189.239 75.4309 189.344 75.5764 189.34 75.7348C189.219 81.1446 185.108 82.7974 184.607 82.9827C182.987 83.8795 181.293 84.301 179.572 84.301ZM164.289 69.3293C165.038 70.4602 168.598 75.8276 169.166 77.1668C169.625 78.2484 173.967 83.5102 179.571 83.5102C179.572 83.5102 179.572 83.5102 179.572 83.5102C181.132 83.5102 182.675 83.1241 184.159 82.2965C184.183 82.2827 184.209 82.2878 184.237 82.2786C184.399 82.2218 188.193 80.8504 188.431 75.9711L173.778 70.1764C173.721 70.1536 173.669 70.1225 173.627 70.0809C173.598 70.0524 170.71 67.2382 167.844 67.2382C166.436 67.2382 165.241 67.942 164.289 69.3293Z" fill="#161616"/>
<path d="M188.89 75.7274L198.114 70.6088C198.114 70.6088 195.08 79.8863 188.89 75.7274Z" fill="#161616"/>
<path d="M188.716 76.0882L199.604 75.4989C199.604 75.4991 191.865 82.3504 188.716 76.0882Z" fill="#161616"/>
<path d="M188.898 76.8224L199.382 79.4706C199.382 79.4706 189.479 83.6499 188.898 76.8224Z" fill="#161616"/>
<path d="M166.472 67.0584C166.472 67.0584 164.806 63.4639 166.472 63.5705C168.137 63.677 168.972 64.8501 168.972 64.8501C168.972 64.8501 170.805 63.3471 171.413 63.9386C172.021 64.5303 170.336 67.4006 170.336 67.4006" fill="#946D42"/>
<path d="M182.337 88.2551H179.28C179.031 88.2551 178.83 88.0781 178.83 87.8597C178.83 87.6412 179.031 87.4643 179.28 87.4643H181.617L179.038 82.8124C178.929 82.6161 179.022 82.3795 179.246 82.2838C179.469 82.1881 179.738 82.2697 179.847 82.466L182.741 87.6865C182.809 87.8089 182.801 87.9536 182.718 88.0692C182.636 88.1849 182.492 88.2551 182.337 88.2551Z" fill="#161616"/>
<path d="M179.91 89.5659C179.753 89.5659 179.601 89.4938 179.518 89.3651C179.396 89.1751 179.472 88.9338 179.688 88.8264L182.115 87.6201C182.331 87.5128 182.606 87.5792 182.728 87.7695C182.851 87.9595 182.775 88.2008 182.558 88.3082L180.131 89.5145C180.061 89.5495 179.985 89.5659 179.91 89.5659Z" fill="#161616"/>
<path d="M169.534 73.9904C169.534 73.9904 171.372 74.5739 172.31 73.6474C173.248 72.7208 172.414 71.1079 172.414 71.1079C172.414 71.1079 174.412 71.4565 175.563 70.4536L173.963 69.8201C173.963 69.8201 167.531 63.4639 163.768 69.3292C163.768 69.3292 166.658 73.6749 168.064 76.0741C168.621 75.8591 169.701 75.2722 169.534 73.9904Z" fill="#EAEFE8"/>
<path d="M168.064 76.4694C167.901 76.4694 167.744 76.3906 167.664 76.2551C166.279 73.8926 163.409 69.5721 163.38 69.5287C163.299 69.4074 163.298 69.2576 163.376 69.1352C164.52 67.3526 166.023 66.4487 167.843 66.4487C170.891 66.4487 173.752 69.0372 174.232 69.4935L175.748 70.0932C175.883 70.1467 175.979 70.2552 176.006 70.3833C176.032 70.5116 175.985 70.6428 175.88 70.7346C175.037 71.4686 173.838 71.5803 173.061 71.56C173.248 72.1969 173.37 73.1953 172.646 73.9102C172.211 74.3401 171.563 74.5672 170.773 74.5672C170.485 74.5672 170.213 74.5373 169.988 74.5003C169.855 75.6799 168.76 76.2374 168.245 76.4362C168.186 76.4588 168.125 76.4694 168.064 76.4694ZM164.289 69.3293C164.841 70.1634 166.988 73.4218 168.255 75.5394C168.75 75.2629 169.187 74.8 169.087 74.0354C169.069 73.8996 169.132 73.7651 169.255 73.6802C169.377 73.5953 169.541 73.5722 169.687 73.6184C169.691 73.6198 170.198 73.7762 170.773 73.7762C171.307 73.7762 171.711 73.6445 171.974 73.3844C172.697 72.67 172.011 71.2851 172.004 71.2714C171.934 71.1363 171.956 70.9783 172.061 70.8622C172.166 70.7461 172.335 70.6907 172.501 70.72C172.505 70.7206 173.702 70.915 174.655 70.528L173.778 70.1807C173.72 70.1579 173.669 70.1247 173.626 70.0831C173.598 70.0546 170.709 67.2395 167.844 67.2395C166.436 67.2393 165.241 67.9422 164.289 69.3293Z" fill="#161616"/>
<path d="M175.563 70.4535C175.563 70.4535 174.69 77.2459 179.242 78.7795C183.793 80.3129 185.493 74.4566 185.493 74.4566L175.563 70.4535Z" fill="#EAEFE8"/>
<path d="M180.71 79.3979H180.709C180.184 79.3979 179.636 79.3195 179.08 79.1322C177.062 78.4519 175.737 76.7163 175.251 74.0969C174.895 72.1754 175.107 70.4764 175.116 70.4049C175.132 70.2789 175.216 70.1696 175.342 70.1071C175.468 70.0445 175.62 70.0399 175.751 70.0929L185.68 74.0964C185.877 74.1762 185.982 74.3686 185.928 74.5537C185.914 74.6027 185.572 75.75 184.785 76.9295C183.7 78.5552 182.291 79.3979 180.71 79.3979ZM175.967 71.0513C175.883 72.653 175.957 77.2494 179.403 78.4103C179.855 78.5628 180.295 78.64 180.71 78.64C183.277 78.6405 184.586 75.661 184.949 74.6726L175.967 71.0513Z" fill="#161616"/>
<path d="M163.768 69.3293C163.768 69.3293 162.191 69.8563 161.827 71.459L164.73 70.7894L163.768 69.3293Z" fill="#161616"/>
<path d="M167.967 69.3706C168.338 69.3706 168.638 69.1064 168.638 68.7806C168.638 68.4548 168.338 68.1907 167.967 68.1907C167.596 68.1907 167.295 68.4548 167.295 68.7806C167.295 69.1064 167.596 69.3706 167.967 69.3706Z" fill="#161616"/>
<path d="M154.446 87.4812C154.446 87.4812 157.876 90.7077 160.962 89.1949C164.049 87.6821 164.049 83.3217 160.962 83.1415C157.876 82.9612 160.162 88.787 154.446 87.4812Z" fill="#8DC73F"/>
<path d="M159.57 91.4974C159.321 91.4974 159.12 91.3205 159.12 91.102V89.6786C159.12 89.4601 159.321 89.2831 159.57 89.2831C159.819 89.2831 160.02 89.4601 160.02 89.6786V91.102C160.02 91.3205 159.819 91.4974 159.57 91.4974Z" fill="#161616"/>
<path d="M161.01 90.8648C160.761 90.8648 160.56 90.6878 160.56 90.4694V89.2041C160.56 88.9857 160.761 88.8087 161.01 88.8087C161.259 88.8087 161.46 88.9857 161.46 89.2041V90.4694C161.46 90.6878 161.259 90.8648 161.01 90.8648Z" fill="#161616"/>
<path d="M162.877 84.2988C162.877 84.2988 165.015 84.9153 165.129 86.148L163.048 85.8847L162.877 84.2988Z" fill="#161616"/>
<path d="M161.013 85.2544C161.362 85.2544 161.645 85.0056 161.645 84.6986C161.645 84.3917 161.362 84.1428 161.013 84.1428C160.663 84.1428 160.38 84.3917 160.38 84.6986C160.38 85.0056 160.663 85.2544 161.013 85.2544Z" fill="#161616"/>
<path d="M147.073 77.6879C147.073 77.6879 150.503 80.9144 153.589 79.4016C156.675 77.8888 156.675 73.5284 153.589 73.3482C150.503 73.1679 152.789 78.9937 147.073 77.6879Z" fill="#8DC73F"/>
<path d="M152.19 81.6913C151.941 81.6913 151.74 81.5143 151.74 81.2959V79.8724C151.74 79.654 151.941 79.477 152.19 79.477C152.439 79.477 152.64 79.654 152.64 79.8724V81.2959C152.64 81.5143 152.439 81.6913 152.19 81.6913Z" fill="#161616"/>
<path d="M153.63 81.2168C153.381 81.2168 153.18 81.0398 153.18 80.8214V79.3979C153.18 79.1795 153.381 79.0025 153.63 79.0025C153.879 79.0025 154.08 79.1795 154.08 79.3979V80.8214C154.08 81.0398 153.879 81.2168 153.63 81.2168Z" fill="#161616"/>
<path d="M155.504 74.5055C155.504 74.5055 157.641 75.1218 157.756 76.3545L155.675 76.0912L155.504 74.5055Z" fill="#161616"/>
<path d="M153.632 75.6064C153.982 75.6064 154.265 75.3576 154.265 75.0506C154.265 74.7437 153.982 74.4948 153.632 74.4948C153.283 74.4948 153 74.7437 153 75.0506C153 75.3576 153.283 75.6064 153.632 75.6064Z" fill="#161616"/>
<path d="M223.329 64.4534C223.422 64.9459 223.043 65.4115 222.483 65.4931C221.922 65.5749 221.393 65.2416 221.3 64.7493L213.356 22.6859C213.263 22.1934 213.642 21.7278 214.202 21.6461C214.763 21.5644 215.293 21.8975 215.386 22.39L223.329 64.4534Z" fill="#DEE5DC"/>
<path d="M222.313 65.9009C221.588 65.9009 220.974 65.4437 220.856 64.814L212.912 22.7506C212.847 22.4084 212.938 22.0642 213.168 21.7819C213.397 21.4996 213.739 21.3128 214.128 21.2561C214.209 21.2444 214.291 21.2384 214.372 21.2384C215.097 21.2384 215.711 21.6957 215.829 22.3253L223.773 64.3887C223.907 65.0955 223.361 65.766 222.557 65.8832C222.476 65.8949 222.394 65.9009 222.313 65.9009ZM214.372 22.0291C214.34 22.0291 214.308 22.0315 214.276 22.0361C214.123 22.0584 213.99 22.1316 213.9 22.242C213.81 22.3524 213.774 22.4871 213.8 22.6209L221.743 64.6845C221.795 64.9587 222.094 65.1496 222.409 65.103C222.724 65.0569 222.938 64.7946 222.885 64.5179L214.942 22.4546C214.895 22.2081 214.655 22.0291 214.372 22.0291Z" fill="#161616"/>
<path d="M214.205 29.7109L217.109 29.2081C217.109 29.2081 217.218 17.2228 213.312 16.903C209.406 16.5834 214.205 29.7109 214.205 29.7109Z" fill="#946D42"/>
<path d="M222.627 61.1958C222.627 61.1958 224.243 65.7216 227.585 65.8184C230.643 65.907 232.405 78.4583 232.405 78.4583C232.405 78.4583 231.333 80.1422 230.968 78.6681C230.602 77.194 228.513 69.6944 227.379 69.6667C226.244 69.639 228.334 78.9896 228.334 78.9896C228.334 78.9896 227.734 81.3303 226.816 79.6919C225.898 78.0534 224.734 70.0521 223.452 70.1628C222.169 70.2736 224.109 80.1469 224.109 80.1469C224.109 80.1469 223.482 81.8283 222.751 80.7198C222.02 79.6114 220.769 70.2236 219.138 70.7917C217.924 71.2146 219.465 80.3449 219.465 80.3449C219.465 80.3449 219.01 83.4588 218.026 80.5505C217.57 79.2003 214.974 71.0237 216.434 67.9788C217.182 66.4186 220.988 66.7802 220.682 61.4794L222.627 61.1958Z" fill="white"/>
<path d="M218.808 82.1875C218.229 82.1875 217.905 81.5781 217.595 80.6633C217.268 79.6955 214.443 71.1131 216.02 67.8253C216.308 67.2229 216.924 66.8774 217.576 66.5115C218.913 65.7607 220.43 64.9094 220.233 61.4996C220.221 61.2987 220.383 61.1224 220.609 61.0895L222.554 60.8057C222.775 60.773 222.99 60.8892 223.057 61.0771C223.072 61.1198 224.618 65.3369 227.6 65.4231C229.624 65.4818 230.841 69.2521 231.581 72.0831C232.399 75.2157 232.848 78.3783 232.852 78.4099C232.864 78.4933 232.845 78.601 232.798 78.6744C232.603 78.9801 232.082 79.7143 231.448 79.7143C231.448 79.7143 231.448 79.7143 231.448 79.7143C231.132 79.7143 230.716 79.5324 230.528 78.7751C229.461 74.4701 228.134 71.1466 227.504 70.2735C227.356 71.4564 228 75.4493 228.776 78.9189C228.788 78.973 228.817 79.0258 228.803 79.0794C228.68 79.5583 228.24 80.6705 227.52 80.6707V80.6701C226.8 80.6702 226.553 80.0654 226.441 79.8669C226.064 79.1933 225.67 77.6602 225.23 75.8852C224.827 74.2597 224.098 71.3446 223.556 70.6681C223.234 71.7036 223.792 76.1877 224.556 80.0798C224.569 80.1432 224.562 80.2087 224.539 80.2701C224.432 80.557 224.023 81.4933 223.269 81.4933C222.919 81.4933 222.614 81.2997 222.363 80.9179C222.089 80.5032 221.826 79.4008 221.384 77.488C221.065 76.1041 220.703 74.5356 220.305 73.2819C219.799 71.6892 219.445 71.2893 219.313 71.1904C218.957 71.814 219.077 75.3495 219.91 80.287C219.916 80.3229 219.916 80.3593 219.911 80.3953C219.738 81.5846 219.366 82.1875 218.808 82.1875ZM221.146 61.8126C221.237 65.3945 219.407 66.4218 218.06 67.178C217.484 67.5014 217.029 67.7568 216.849 68.1323C216.275 69.329 216.311 71.6454 216.954 74.8312C217.52 77.6325 218.363 80.1592 218.458 80.438C218.59 80.8306 218.701 81.071 218.783 81.2164C218.87 80.9989 218.96 80.6661 219.011 80.3474C218.95 79.9821 218.61 77.8812 218.398 75.7616C217.94 71.1808 218.455 70.6047 218.973 70.4243C219.073 70.3893 219.176 70.3717 219.281 70.3717C220.468 70.3717 221.134 72.4233 222.266 77.3309C222.592 78.741 222.928 80.1989 223.141 80.5217C223.199 80.6095 223.244 80.6577 223.273 80.6832C223.381 80.6 223.541 80.3539 223.645 80.1125C223.211 77.8843 221.982 71.0974 222.914 70.0219C223.077 69.8343 223.272 69.7812 223.408 69.7693C223.431 69.7672 223.454 69.7663 223.478 69.7663C224.455 69.7663 224.988 71.2521 226.094 75.7167C226.486 77.2966 226.89 78.9303 227.219 79.5172C227.326 79.7083 227.409 79.8032 227.458 79.8483C227.589 79.7173 227.769 79.3434 227.874 78.9806C227.782 78.5632 227.373 76.6766 227.045 74.7314C226.268 70.1372 226.683 69.6942 226.882 69.4814C227.009 69.3459 227.184 69.2712 227.373 69.2712C227.9 69.2837 228.555 69.6227 229.892 73.5105C230.644 75.6949 231.253 77.962 231.407 78.5839C231.439 78.7125 231.472 78.7928 231.498 78.8411C231.618 78.7593 231.798 78.569 231.939 78.3732C231.845 77.7428 231.416 74.9855 230.702 72.2548C229.247 66.6911 227.937 66.2241 227.57 66.2136C224.467 66.1238 222.787 62.7296 222.327 61.6405L221.146 61.8126Z" fill="#161616"/>
<path d="M36.4274 38.4724C40.7256 38.4724 44.2099 35.4108 44.2099 31.6341C44.2099 27.8573 40.7256 24.7957 36.4274 24.7957C32.1293 24.7957 28.645 27.8573 28.645 31.6341C28.645 35.4108 32.1293 38.4724 36.4274 38.4724Z" fill="#DEE5DC"/>
<path d="M36.7218 27.0217C39.8471 27.0217 42.3806 24.7955 42.3806 22.0494C42.3806 19.3032 39.8471 17.077 36.7218 17.077C33.5965 17.077 31.0629 19.3032 31.0629 22.0494C31.0629 24.7955 33.5965 27.0217 36.7218 27.0217Z" fill="#DEE5DC"/>
<path d="M36.6401 47.7653C36.6397 47.7653 36.6393 47.7653 36.639 47.7653C36.3904 47.7653 36.1895 47.5534 36.1901 47.3349L36.2718 20.0592C36.2723 19.8412 36.4737 19.6122 36.7218 19.6122C36.7221 19.6122 36.7225 19.6122 36.7229 19.6122C36.9714 19.6122 37.1723 19.8261 37.1718 20.0443L37.0901 47.3191C37.0895 47.5372 36.8881 47.7653 36.6401 47.7653Z" fill="#161616"/>
<path d="M36.6397 33.513C36.5681 33.513 36.4953 33.4978 36.4277 33.4661L32.2225 31.4879C32.0034 31.3849 31.921 31.1452 32.0382 30.9527C32.1557 30.76 32.4282 30.6878 32.6473 30.7907L36.8524 32.7689C37.0715 32.8718 37.1539 33.1116 37.0368 33.3041C36.9558 33.4371 36.8003 33.513 36.6397 33.513Z" fill="#161616"/>
<path d="M36.7214 25.1908C36.6197 25.1908 36.5173 25.1608 36.4331 25.0988C36.2423 24.9586 36.2171 24.7094 36.3765 24.5419L39.6846 21.0654C39.8441 20.8978 40.1277 20.8753 40.3184 21.0158C40.5092 21.1559 40.5344 21.4052 40.3749 21.5727L37.0668 25.0491C36.9779 25.1427 36.8501 25.1908 36.7214 25.1908Z" fill="#161616"/>
<path d="M77.1857 142.494C77.1506 142.494 77.115 142.49 77.0795 142.483C76.8379 142.432 76.6894 142.218 76.7479 142.006C76.7805 141.887 77.5723 139.064 79.7953 135.472C81.8486 132.155 85.56 127.552 91.5816 124.46C91.7961 124.349 92.0717 124.413 92.197 124.601C92.3224 124.79 92.2501 125.032 92.0355 125.142C80.8469 130.888 77.6533 142.079 77.6224 142.191C77.5727 142.372 77.3886 142.494 77.1857 142.494Z" fill="#161616"/>
<path d="M70.4256 141.023C70.4112 141.023 70.3966 141.022 70.382 141.021C70.1345 141 69.9534 140.807 69.977 140.59C70.0047 140.337 72.6531 115.215 64.8769 107.67C64.71 107.508 64.7241 107.258 64.9084 107.111C65.0927 106.965 65.3771 106.977 65.544 107.139C68.9354 110.429 70.8612 117.082 71.2678 126.913C71.5689 134.19 70.8799 140.601 70.8729 140.665C70.8507 140.87 70.6547 141.023 70.4256 141.023Z" fill="#161616"/>
<path d="M91.853 123.599C91.853 123.599 95.3727 118.252 92.3455 116.956C89.886 115.903 89.0644 122.253 91.853 123.599Z" fill="#8DC73F"/>
<path d="M91.7316 124C91.4841 124 91.2829 123.821 91.2816 123.604L91.2523 118.243C91.251 118.024 91.4516 117.832 91.7001 117.832C91.7009 117.832 91.7016 117.832 91.7025 117.832C91.95 117.832 92.1512 118.02 92.1525 118.237L92.1818 123.594C92.1831 123.812 91.9826 124 91.734 124C91.7331 124 91.7324 124 91.7316 124Z" fill="#161616"/>
<path d="M84.7588 129.047C84.7588 129.047 87.1217 123.229 83.8777 122.435C81.2423 121.79 81.7393 128.166 84.7588 129.047Z" fill="#8DC73F"/>
<path d="M84.6389 129.462C84.4269 129.462 84.2379 129.33 84.1972 129.14L83.0693 123.885C83.0233 123.671 83.1838 123.464 83.4281 123.423C83.6722 123.383 83.9076 123.524 83.9537 123.739L85.0816 128.994C85.1276 129.208 84.9671 129.415 84.7228 129.455C84.6947 129.46 84.6667 129.462 84.6389 129.462Z" fill="#161616"/>
<path d="M78.8735 136.341C78.8735 136.341 80.8071 130.402 77.5118 129.792C74.8347 129.297 75.7961 135.631 78.8735 136.341Z" fill="#8DC73F"/>
<path d="M78.7554 136.763C78.5547 136.763 78.3719 136.644 78.3198 136.465L76.8109 131.285C76.7493 131.073 76.8944 130.858 77.1353 130.804C77.3759 130.749 77.6213 130.877 77.6828 131.089L79.1918 136.269C79.2533 136.481 79.1082 136.696 78.8674 136.75C78.83 136.759 78.7925 136.763 78.7554 136.763Z" fill="#161616"/>
<path d="M94.3248 123.948C94.3248 123.948 101.32 124.562 101.417 121.605C101.495 119.202 94.5717 121.161 94.3248 123.948Z" fill="#8DC73F"/>
<path d="M94.2751 124.246C94.1044 124.246 93.9414 124.161 93.8658 124.016C93.7623 123.817 93.8616 123.582 94.0875 123.492L99.6202 121.265C99.8461 121.173 100.113 121.261 100.217 121.459C100.32 121.658 100.221 121.893 99.9949 121.983L94.4623 124.21C94.4016 124.235 94.3379 124.246 94.2751 124.246Z" fill="#161616"/>
<path d="M88.688 127.516C88.688 127.516 93.9939 131.568 96.0174 129.203C97.6612 127.282 90.7222 125.366 88.688 127.516Z" fill="#8DC73F"/>
<path d="M94.6919 128.798C94.6642 128.798 94.6361 128.796 94.608 128.791L88.6277 127.8C88.3835 127.759 88.2229 127.553 88.269 127.338C88.3149 127.123 88.5505 126.983 88.7946 127.023L94.7749 128.014C95.0192 128.054 95.1797 128.261 95.1336 128.476C95.0928 128.665 94.904 128.798 94.6919 128.798Z" fill="#161616"/>
<path d="M81.7803 134.97C81.7803 134.97 88.1588 137.567 89.3545 134.801C90.326 132.554 83.0545 132.408 81.7803 134.97Z" fill="#8DC73F"/>
<path d="M81.769 135.259C81.5399 135.259 81.3438 135.106 81.3215 134.901C81.2979 134.684 81.4792 134.491 81.7267 134.47L87.7848 133.962C88.033 133.942 88.2519 134.1 88.2756 134.318C88.2992 134.535 88.118 134.728 87.8705 134.749L81.8124 135.257C81.7978 135.259 81.7834 135.259 81.769 135.259Z" fill="#161616"/>
<path d="M65.6226 105.45C65.6226 105.45 71.5841 99.0495 67.9013 96.7637C64.9093 94.9075 62.2675 103.143 65.6226 105.45Z" fill="#8DC73F"/>
<path d="M65.4628 105.822C65.4396 105.822 65.4159 105.82 65.3921 105.817C65.1466 105.783 64.979 105.581 65.0179 105.365L66.2896 98.2932C66.3283 98.0776 66.5574 97.9312 66.8042 97.9644C67.0497 97.9985 67.2173 98.201 67.1784 98.4167L65.9067 105.488C65.8718 105.683 65.6805 105.822 65.4628 105.822Z" fill="#161616"/>
<path d="M70.8446 116.338C70.8446 116.338 78.9005 113.418 77.039 110.134C75.5263 107.468 69.2605 113.164 70.8446 116.338Z" fill="#8DC73F"/>
<path d="M70.7249 116.653C70.6299 116.653 70.5341 116.626 70.4528 116.572C70.255 116.44 70.2166 116.192 70.3671 116.018L74.9346 110.742C75.0849 110.569 75.3673 110.535 75.5651 110.667C75.763 110.799 75.8013 111.047 75.6508 111.221L71.0833 116.497C70.9949 116.599 70.8607 116.653 70.7249 116.653Z" fill="#161616"/>
<path d="M72.1869 130.884C72.1869 130.884 80.2428 127.963 78.3812 124.68C76.8685 122.013 70.6027 127.71 72.1869 130.884Z" fill="#8DC73F"/>
<path d="M72.0672 131.199C71.9721 131.199 71.8764 131.172 71.795 131.118C71.5972 130.986 71.5588 130.738 71.7093 130.564L76.2768 125.288C76.4271 125.114 76.7097 125.081 76.9074 125.213C77.1052 125.345 77.1435 125.593 76.993 125.767L72.4255 131.042C72.3372 131.145 72.2029 131.199 72.0672 131.199Z" fill="#161616"/>
<path d="M64.0216 106.547C64.0216 106.547 55.363 105.68 56.1282 102.074C56.7505 99.1451 64.5542 103.113 64.0216 106.547Z" fill="#8DC73F"/>
<path d="M64.1109 106.836C64.0171 106.836 63.9225 106.81 63.8416 106.757L57.8025 102.785C57.6036 102.654 57.5629 102.406 57.7119 102.231C57.861 102.057 58.143 102.021 58.3419 102.152L64.3811 106.124C64.58 106.255 64.6207 106.503 64.4716 106.677C64.3831 106.781 64.2479 106.836 64.1109 106.836Z" fill="#161616"/>
<path d="M67.4167 113.444C67.4167 113.444 58.8233 114.717 58.4228 111.066C58.0978 108.1 66.8465 110.014 67.4167 113.444Z" fill="#8DC73F"/>
<path d="M67.4689 113.715C67.416 113.715 67.3622 113.707 67.3096 113.69L60.255 111.342C60.0227 111.264 59.9057 111.036 59.9937 110.832C60.0817 110.628 60.3413 110.525 60.574 110.602L67.6286 112.95C67.8609 113.027 67.9779 113.256 67.8899 113.46C67.8217 113.618 67.6505 113.715 67.4689 113.715Z" fill="#161616"/>
<path d="M69.6536 123.272C69.6536 123.272 61.0602 124.545 60.6597 120.894C60.3346 117.928 69.0834 119.843 69.6536 123.272Z" fill="#8DC73F"/>
<path d="M69.706 123.544C69.6531 123.544 69.5991 123.535 69.5467 123.518L62.4923 121.17C62.26 121.092 62.143 120.864 62.231 120.66C62.319 120.456 62.5791 120.353 62.8113 120.43L69.8657 122.778C70.0981 122.856 70.2151 123.084 70.127 123.288C70.0588 123.446 69.8876 123.544 69.706 123.544Z" fill="#161616"/>
<path d="M69.1814 134.334C69.1814 134.334 63.3777 135.194 63.107 132.728C62.8876 130.725 68.7962 132.018 69.1814 134.334Z" fill="#8DC73F"/>
<path d="M69.2166 134.646C69.1637 134.646 69.1097 134.638 69.0573 134.62L64.2929 133.034C64.0605 132.957 63.9435 132.729 64.0316 132.525C64.1198 132.321 64.3797 132.218 64.6119 132.295L69.3763 133.881C69.6087 133.958 69.7257 134.187 69.6377 134.391C69.5693 134.549 69.3983 134.646 69.2166 134.646Z" fill="#161616"/>
<path d="M201.744 98.7269L225.407 99.0282L227.218 118.769C227.218 118.769 227.475 122.084 224.389 122.084C221.302 122.084 201.744 122.159 201.744 122.159C201.744 122.159 197.898 121.029 198.413 118.543C198.927 116.057 201.744 98.7269 201.744 98.7269Z" fill="#EAEFE8"/>
<path d="M201.744 122.576C201.696 122.576 201.648 122.559 201.602 122.545C201.56 122.533 200.56 122.229 199.615 121.605C198.296 120.733 197.727 119.649 197.97 118.475C198.477 116.025 201.271 98.8687 201.299 98.6954C201.331 98.5004 201.521 98.3775 201.744 98.3775C201.746 98.3775 201.749 98.3775 201.751 98.3775L225.413 98.6559C225.645 98.6589 225.837 98.8047 225.856 99.0081L227.666 118.743C227.673 118.823 227.797 120.601 226.646 121.683C226.082 122.213 225.323 122.492 224.389 122.492C221.339 122.492 201.942 122.576 201.746 122.576C201.746 122.576 201.745 122.576 201.744 122.576ZM202.134 99.1272C201.734 101.582 199.325 116.344 198.855 118.614C198.449 120.574 201.345 121.607 201.822 121.763C203.185 121.758 221.436 121.688 224.389 121.688C225.072 121.688 225.594 121.51 225.986 121.142C226.87 120.314 226.77 118.81 226.769 118.795L224.991 99.4182L202.134 99.1272Z" fill="#161616"/>
<path d="M198.413 118.543C197.898 121.029 201.744 122.159 201.744 122.159C201.744 122.159 221.302 122.084 224.389 122.084C227.475 122.084 227.218 118.769 227.218 118.769C212.752 110.411 198.413 118.543 198.413 118.543Z" fill="#B2BCAF"/>
<path d="M201.744 122.576C201.696 122.576 201.648 122.559 201.602 122.545C201.56 122.533 200.56 122.229 199.615 121.605C198.296 120.733 197.727 119.649 197.97 118.475C198.014 118.261 198.248 118.116 198.493 118.156C198.737 118.195 198.9 118.4 198.855 118.615C198.451 120.568 201.346 121.607 201.822 121.764C203.19 121.758 221.437 121.689 224.389 121.689C225.071 121.689 225.594 121.51 225.986 121.142C226.87 120.314 226.77 118.811 226.769 118.795C226.753 118.578 226.94 118.389 227.188 118.375C227.438 118.361 227.65 118.525 227.667 118.742C227.672 118.818 227.796 120.598 226.646 121.68C226.082 122.21 225.323 122.49 224.389 122.49C221.339 122.49 201.942 122.576 201.746 122.576C201.746 122.576 201.745 122.576 201.744 122.576Z" fill="#161616"/>
<path d="M234.152 115.934H226.95C226.717 115.934 226.522 115.777 226.502 115.572L226.222 112.725C226.211 112.615 226.253 112.506 226.339 112.424C226.424 112.342 226.544 112.296 226.67 112.296H230.44L225.817 107.478C225.756 107.415 225.72 107.337 225.712 107.255L225.29 102.69C225.274 102.517 225.387 102.355 225.57 102.291C225.753 102.226 225.963 102.274 226.087 102.408L234.497 111.477C234.508 111.489 234.519 111.502 234.528 111.515C234.583 111.591 235.846 113.368 235.43 114.733C235.274 115.244 234.915 115.633 234.361 115.889C234.296 115.918 234.225 115.934 234.152 115.934ZM227.363 115.143H234.034C234.307 114.995 234.48 114.794 234.56 114.529C234.818 113.687 234.099 112.407 233.782 111.957L226.304 103.894L226.598 107.065L231.752 112.436C231.865 112.554 231.89 112.718 231.816 112.858C231.743 112.997 231.583 113.087 231.408 113.087H227.161L227.363 115.143Z" fill="#161616"/>
<path d="M216.831 111.377C216.693 111.377 216.557 111.321 216.469 111.216C216.321 111.04 216.364 110.793 216.564 110.663C221.162 107.687 222.729 100.451 221.747 96.9701C221.568 96.3329 221.135 95.2463 220.253 95.1299C216.978 94.6984 213.749 98.9032 213.716 98.9459C213.578 99.1275 213.299 99.1767 213.092 99.0557C212.886 98.9347 212.829 98.6895 212.967 98.5077C213.112 98.3169 216.548 93.8426 220.387 94.3476C221.121 94.4446 222.104 94.945 222.621 96.7799C223.685 100.554 222.063 108.086 217.098 111.3C217.017 111.352 216.924 111.377 216.831 111.377Z" fill="#161616"/>
<path d="M188.588 104.131C187.436 104.131 186.08 103.855 184.439 103.203C184.213 103.113 184.113 102.878 184.215 102.679C184.318 102.481 184.585 102.393 184.811 102.482C190.059 104.57 191.876 102.492 194.177 99.8626C195.232 98.656 196.324 97.4082 197.851 96.4403C199.219 95.5723 200.668 95.2423 202.155 95.4593C205.188 95.9016 207.281 98.4567 207.368 98.5652C207.512 98.7434 207.464 98.9903 207.261 99.1164C207.058 99.2428 206.778 99.2007 206.634 99.0229C206.615 98.999 204.664 96.6245 202.004 96.2388C200.763 96.0591 199.543 96.3422 198.377 97.0815C196.957 97.9817 195.907 99.183 194.89 100.345C193.2 102.276 191.578 104.131 188.588 104.131Z" fill="#161616"/>
<path d="M218.93 108.334C218.93 108.334 213.222 111.832 215.707 117.465C215.707 117.466 222.257 115.608 218.93 108.334Z" fill="#8DC73F"/>
<path d="M183.152 97.7083C183.152 97.7083 187.022 102.791 193.48 100.718C193.48 100.718 191.495 94.9273 183.152 97.7083Z" fill="#8DC73F"/>
<path d="M197.008 97.8249C197.008 97.8249 191.548 101.618 194.412 107.11C194.412 107.11 200.824 104.912 197.008 97.8249Z" fill="#8DC73F"/>
<path d="M210.497 104.266C210.497 104.266 216.349 107.577 221.335 103.418C221.335 103.418 216.892 98.7988 210.497 104.266Z" fill="#8DC73F"/>
<path d="M222.078 100.74C222.078 100.74 219.247 106.327 224.686 110.023C224.686 110.023 229.203 105.46 222.078 100.74Z" fill="#8DC73F"/>
<path d="M202.481 95.7356C202.481 95.7356 199.959 91.4558 194.694 92.5805C194.695 92.5805 195.67 97.2686 202.481 95.7356Z" fill="#8DC73F"/>
<path d="M226.648 97.419C226.648 97.419 225.084 94.1675 221.167 94.7248C221.167 94.7248 221.575 98.197 226.648 97.419Z" fill="#8DC73F"/>
<path d="M214.081 97.6583C215.622 97.6583 216.871 96.5606 216.871 95.2065C216.871 93.8524 215.622 92.7546 214.081 92.7546C212.54 92.7546 211.29 93.8524 211.29 95.2065C211.29 96.5606 212.54 97.6583 214.081 97.6583Z" fill="#946D42"/>
<path d="M219.841 92.783C221.399 92.783 222.663 91.6728 222.663 90.3034C222.663 88.934 221.399 87.8239 219.841 87.8239C218.282 87.8239 217.019 88.934 217.019 90.3034C217.019 91.6728 218.282 92.783 219.841 92.783Z" fill="#946D42"/>
</svg>
