<svg width="18" height="18" viewBox="0 0 18 18" fill="none" xmlns="http://www.w3.org/2000/svg">
<path d="M7.33329 13.1667H8.16663V14C8.16663 14.221 8.25442 14.433 8.4107 14.5892C8.56698 14.7455 8.77895 14.8333 8.99996 14.8333C9.22097 14.8333 9.43293 14.7455 9.58922 14.5892C9.7455 14.433 9.83329 14.221 9.83329 14V13.1667H10.6666C10.8876 13.1667 11.0996 13.0789 11.2559 12.9226C11.4122 12.7663 11.5 12.5543 11.5 12.3333C11.5 12.1123 11.4122 11.9003 11.2559 11.7441C11.0996 11.5878 10.8876 11.5 10.6666 11.5H9.83329V10.6667C9.83329 10.4456 9.7455 10.2337 9.58922 10.0774C9.43293 9.92112 9.22097 9.83332 8.99996 9.83332C8.77895 9.83332 8.56698 9.92112 8.4107 10.0774C8.25442 10.2337 8.16663 10.4456 8.16663 10.6667V11.5H7.33329C7.11228 11.5 6.90032 11.5878 6.74404 11.7441C6.58776 11.9003 6.49996 12.1123 6.49996 12.3333C6.49996 12.5543 6.58776 12.7663 6.74404 12.9226C6.90032 13.0789 7.11228 13.1667 7.33329 13.1667ZM14.8333 3.99999H13.1666V3.16666C13.1666 2.50362 12.9032 1.86773 12.4344 1.39889C11.9656 0.930049 11.3297 0.666656 10.6666 0.666656H7.33329C6.67025 0.666656 6.03437 0.930049 5.56553 1.39889C5.09668 1.86773 4.83329 2.50362 4.83329 3.16666V3.99999H3.16663C2.50358 3.99999 1.8677 4.26338 1.39886 4.73222C0.930018 5.20106 0.666626 5.83695 0.666626 6.49999V14.8333C0.666626 15.4964 0.930018 16.1322 1.39886 16.6011C1.8677 17.0699 2.50358 17.3333 3.16663 17.3333H14.8333C15.4963 17.3333 16.1322 17.0699 16.6011 16.6011C17.0699 16.1322 17.3333 15.4964 17.3333 14.8333V6.49999C17.3333 5.83695 17.0699 5.20106 16.6011 4.73222C16.1322 4.26338 15.4963 3.99999 14.8333 3.99999ZM6.49996 3.16666C6.49996 2.94564 6.58776 2.73368 6.74404 2.5774C6.90032 2.42112 7.11228 2.33332 7.33329 2.33332H10.6666C10.8876 2.33332 11.0996 2.42112 11.2559 2.5774C11.4122 2.73368 11.5 2.94564 11.5 3.16666V3.99999H6.49996V3.16666ZM15.6666 14.8333C15.6666 15.0543 15.5788 15.2663 15.4225 15.4226C15.2663 15.5789 15.0543 15.6667 14.8333 15.6667H3.16663C2.94561 15.6667 2.73365 15.5789 2.57737 15.4226C2.42109 15.2663 2.33329 15.0543 2.33329 14.8333V8.99999H15.6666V14.8333ZM15.6666 7.33332H2.33329V6.49999C2.33329 6.27898 2.42109 6.06701 2.57737 5.91073C2.73365 5.75445 2.94561 5.66666 3.16663 5.66666H14.8333C15.0543 5.66666 15.2663 5.75445 15.4225 5.91073C15.5788 6.06701 15.6666 6.27898 15.6666 6.49999V7.33332Z" fill="white"/>
</svg>
